solid servo-halter-sg90-1
facet normal 1.1924293790713377e-31 3.845408839838043e-15 1.0
  outer loop
    vertex 8.000000000000014 -4.857108850258417e-15 12.999999999999991
    vertex 9.999999999999977 4.000000000000011 12.999999999999979
    vertex 8.000000000000007 4.000000000000022 12.999999999999979
  endloop
endfacet
facet normal 1.1924293790713377e-31 3.845408839838043e-15 1.0
  outer loop
    vertex 9.999999999999977 4.000000000000011 12.999999999999979
    vertex 8.000000000000014 -4.857108850258417e-15 12.999999999999991
    vertex 10.000000000000021 1.9999999999999871 13.000000000000007
  endloop
endfacet
facet normal 1.1924293790713377e-31 3.845408839838043e-15 1.0
  outer loop
    vertex 10.000000000000021 1.9999999999999871 13.000000000000007
    vertex 8.000000000000014 -4.857108850258417e-15 12.999999999999991
    vertex 34.99999999999996 -1.472699153917606e-14 12.999999999999991
  endloop
endfacet
facet normal 1.1924293790713377e-31 3.845408839838043e-15 1.0
  outer loop
    vertex 10.000000000000021 1.9999999999999871 13.000000000000007
    vertex 34.99999999999996 -1.472699153917606e-14 12.999999999999991
    vertex 33.00000000000001 1.9999999999999822 13.000000000000007
  endloop
endfacet
facet normal 1.1924293790713377e-31 3.845408839838043e-15 1.0
  outer loop
    vertex 33.00000000000001 1.9999999999999822 13.000000000000007
    vertex 34.99999999999996 -1.472699153917606e-14 12.999999999999991
    vertex 34.99999999999995 4.000000000000014 12.999999999999979
  endloop
endfacet
facet normal 1.1924293790713377e-31 3.845408839838043e-15 1.0
  outer loop
    vertex 34.99999999999995 4.000000000000014 12.999999999999979
    vertex 33.0 4.000000000000012 12.999999999999979
    vertex 33.00000000000001 1.9999999999999822 13.000000000000007
  endloop
endfacet
facet normal -1.0 2.819966482547903e-15 -6.491600785872998e-32
  outer loop
    vertex 8.000000000000064 15.999999999999964 7.000000000000014
    vertex 8.000000000000025 1.99999999999999 -3.524958103184872e-16
    vertex 8.000000000000025 1.99999999999999 7.000000000000008
  endloop
endfacet
facet normal -1.0 2.819966482547903e-15 -6.491600785872998e-32
  outer loop
    vertex 8.000000000000025 1.99999999999999 -3.524958103184872e-16
    vertex 8.000000000000064 15.999999999999964 7.000000000000014
    vertex 8.000000000000064 15.999999999999964 4.5824455341403335e-15
  endloop
endfacet
facet normal 1.0 7.080791751799059e-16 4.940087268696558e-17
  outer loop
    vertex 34.99999999999996 3.999999999999991 9.500000000000021
    vertex 34.99999999999995 1.999999999999981 10.000000000000023
    vertex 34.99999999999995 1.999999999999981 9.500000000000009
  endloop
endfacet
facet normal 1.0 7.080791751799059e-16 4.940087268696558e-17
  outer loop
    vertex 34.99999999999995 1.999999999999981 10.000000000000023
    vertex 34.99999999999996 -1.472699153917606e-14 12.999999999999991
    vertex 34.99999999999996 -1.472699153917606e-14 10.000000000000018
  endloop
endfacet
facet normal 1.0 7.080791751799059e-16 4.940087268696558e-17
  outer loop
    vertex 34.99999999999996 -1.472699153917606e-14 12.999999999999991
    vertex 34.99999999999995 1.999999999999981 10.000000000000023
    vertex 34.99999999999995 4.000000000000014 12.999999999999979
  endloop
endfacet
facet normal 1.0 7.080791751799059e-16 4.940087268696558e-17
  outer loop
    vertex 34.99999999999995 4.000000000000014 12.999999999999979
    vertex 34.99999999999995 1.999999999999981 10.000000000000023
    vertex 34.99999999999996 3.999999999999991 9.500000000000021
  endloop
endfacet
facet normal 1.0 4.511946372076641e-16 -1.6114094185987955e-15
  outer loop
    vertex 10.000000000000004 14.499999999999984 -5.639932965095795e-15
    vertex 10.000000000000021 1.9999999999999871 7.000000000000008
    vertex 10.000000000000021 1.9999999999999871 -3.524958103184872e-16
  endloop
endfacet
facet normal 1.0 4.511946372076641e-16 -1.6114094185987955e-15
  outer loop
    vertex 10.000000000000021 1.9999999999999871 7.000000000000008
    vertex 10.000000000000004 14.499999999999984 -5.639932965095795e-15
    vertex 10.000000000000027 14.499999999999963 7.0
  endloop
endfacet
facet normal -1.409983241273987e-14 1.0 -0.0
  outer loop
    vertex 8.000000000000064 15.999999999999964 7.000000000000014
    vertex 10.00000000000001 15.999999999999993 4.5824455341403335e-15
    vertex 8.000000000000064 15.999999999999964 4.5824455341403335e-15
  endloop
endfacet
facet normal -1.409983241273987e-14 1.0 -0.0
  outer loop
    vertex 10.00000000000001 15.999999999999993 4.5824455341403335e-15
    vertex 8.000000000000064 15.999999999999964 7.000000000000014
    vertex 10.00000000000001 15.999999999999993 7.000000000000014
  endloop
endfacet
facet normal 5.6399329650959645e-15 1.0 -0.0
  outer loop
    vertex 33.00000000000002 15.999999999999993 7.000000000000017
    vertex 34.99999999999996 15.999999999999982 4.5824455341403335e-15
    vertex 33.00000000000002 15.999999999999993 4.5824455341403335e-15
  endloop
endfacet
facet normal 5.6399329650959645e-15 1.0 -0.0
  outer loop
    vertex 34.99999999999996 15.999999999999982 4.5824455341403335e-15
    vertex 33.00000000000002 15.999999999999993 7.000000000000017
    vertex 34.99999999999996 15.999999999999982 7.000000000000017
  endloop
endfacet
facet normal -1.9937619618323155e-15 -3.804889240137872e-16 1.0
  outer loop
    vertex 34.99999999999995 1.999999999999981 7.000000000000008
    vertex 33.00000000000001 14.499999999999973 7.000000000000003
    vertex 33.00000000000001 1.9999999999999822 7.000000000000008
  endloop
endfacet
facet normal -1.9937619618323155e-15 -3.804889240137872e-16 1.0
  outer loop
    vertex 33.00000000000001 14.499999999999973 7.000000000000003
    vertex 34.99999999999995 1.999999999999981 7.000000000000008
    vertex 33.00000000000002 15.999999999999993 7.000000000000017
  endloop
endfacet
facet normal -1.9937619618323155e-15 -3.804889240137872e-16 1.0
  outer loop
    vertex 33.00000000000002 15.999999999999993 7.000000000000017
    vertex 34.99999999999995 1.999999999999981 7.000000000000008
    vertex 34.99999999999996 15.999999999999982 7.000000000000017
  endloop
endfacet
facet normal -1.0 0.0 0.0
  outer loop
    vertex 33.00000000000001 14.499999999999973 7.000000000000003
    vertex 33.00000000000001 1.9999999999999822 -3.524958103184872e-16
    vertex 33.00000000000001 1.9999999999999822 7.000000000000008
  endloop
endfacet
facet normal -1.0 0.0 0.0
  outer loop
    vertex 33.00000000000001 1.9999999999999822 -3.524958103184872e-16
    vertex 33.00000000000001 14.499999999999973 7.000000000000003
    vertex 33.00000000000001 14.500000000000002 -5.639932965095795e-15
  endloop
endfacet
facet normal 2.0394206327139385e-15 -1.7393779383487774e-16 1.0
  outer loop
    vertex 10.000000000000021 1.9999999999999871 7.000000000000008
    vertex 8.000000000000064 15.999999999999964 7.000000000000014
    vertex 8.000000000000025 1.99999999999999 7.000000000000008
  endloop
endfacet
facet normal 2.0394206327139385e-15 -1.7393779383487774e-16 1.0
  outer loop
    vertex 8.000000000000064 15.999999999999964 7.000000000000014
    vertex 10.000000000000021 1.9999999999999871 7.000000000000008
    vertex 10.00000000000001 15.999999999999993 7.000000000000014
  endloop
endfacet
facet normal 2.0394206327139385e-15 -1.7393779383487774e-16 1.0
  outer loop
    vertex 10.00000000000001 15.999999999999993 7.000000000000014
    vertex 10.000000000000021 1.9999999999999871 7.000000000000008
    vertex 10.000000000000027 14.499999999999963 7.0
  endloop
endfacet
facet normal 4.582445534140383e-15 1.0 -5.035654433121324e-15
  outer loop
    vertex 8.000000000000007 4.000000000000022 12.999999999999979
    vertex 9.99999999999997 3.9999999999999956 9.500000000000021
    vertex 7.999999999999985 4.000000000000003 9.500000000000021
  endloop
endfacet
facet normal 4.582445534140383e-15 1.0 -5.035654433121324e-15
  outer loop
    vertex 9.99999999999997 3.9999999999999956 9.500000000000021
    vertex 8.000000000000007 4.000000000000022 12.999999999999979
    vertex 9.999999999999977 4.000000000000011 12.999999999999979
  endloop
endfacet
facet normal -7.049916206369904e-16 1.0 -6.445637674395272e-15
  outer loop
    vertex 33.0 4.000000000000012 12.999999999999979
    vertex 34.99999999999996 3.999999999999991 9.500000000000021
    vertex 33.0 3.99999999999999 9.500000000000021
  endloop
endfacet
facet normal -7.049916206369904e-16 1.0 -6.445637674395272e-15
  outer loop
    vertex 34.99999999999996 3.999999999999991 9.500000000000021
    vertex 33.0 4.000000000000012 12.999999999999979
    vertex 34.99999999999995 4.000000000000014 12.999999999999979
  endloop
endfacet
facet normal 5.344217109052834e-29 -9.399888275159464e-15 1.0
  outer loop
    vertex 12.000000000000114 14.499999999999973 7.0
    vertex 10.00000000000001 15.999999999999993 7.000000000000014
    vertex 10.000000000000027 14.499999999999963 7.0
  endloop
endfacet
facet normal 0.5999999999999815 0.8000000000000138 1.6102404273911197e-15
  outer loop
    vertex 10.00000000000001 15.999999999999993 4.5824455341403335e-15
    vertex 12.000000000000114 14.499999999999973 7.0
    vertex 12.000000000000114 14.500000000000002 -5.639932965095795e-15
  endloop
endfacet
facet normal 0.5999999999999815 0.8000000000000138 1.6102404273911197e-15
  outer loop
    vertex 12.000000000000114 14.499999999999973 7.0
    vertex 10.00000000000001 15.999999999999993 4.5824455341403335e-15
    vertex 10.00000000000001 15.999999999999993 7.000000000000014
  endloop
endfacet
facet normal 7.0499162063694064e-15 -1.0 -3.625671191847306e-15
  outer loop
    vertex 12.000000000000114 14.499999999999973 7.0
    vertex 10.000000000000004 14.499999999999984 -5.639932965095795e-15
    vertex 12.000000000000114 14.500000000000002 -5.639932965095795e-15
  endloop
endfacet
facet normal 7.0499162063694064e-15 -1.0 -3.625671191847306e-15
  outer loop
    vertex 10.000000000000004 14.499999999999984 -5.639932965095795e-15
    vertex 12.000000000000114 14.499999999999973 7.0
    vertex 10.000000000000027 14.499999999999963 7.0
  endloop
endfacet
facet normal -1.3277039380304609e-28 -9.399888275159535e-15 1.0
  outer loop
    vertex 33.00000000000002 15.999999999999993 7.000000000000017
    vertex 31.000000000000018 14.500000000000002 7.000000000000003
    vertex 33.00000000000001 14.499999999999973 7.000000000000003
  endloop
endfacet
facet normal -0.5999999999999933 0.8000000000000049 1.8409273538684143e-15
  outer loop
    vertex 31.000000000000018 14.500000000000002 7.000000000000003
    vertex 33.00000000000002 15.999999999999993 4.5824455341403335e-15
    vertex 31.00000000000001 14.50000000000003 -5.639932965095795e-15
  endloop
endfacet
facet normal -0.5999999999999933 0.8000000000000049 1.8409273538684143e-15
  outer loop
    vertex 33.00000000000002 15.999999999999993 4.5824455341403335e-15
    vertex 31.000000000000018 14.500000000000002 7.000000000000003
    vertex 33.00000000000002 15.999999999999993 7.000000000000017
  endloop
endfacet
facet normal -1.4099832412739535e-14 -1.0 -4.0285235464969854e-15
  outer loop
    vertex 33.00000000000001 14.499999999999973 7.000000000000003
    vertex 31.00000000000001 14.50000000000003 -5.639932965095795e-15
    vertex 33.00000000000001 14.500000000000002 -5.639932965095795e-15
  endloop
endfacet
facet normal -1.4099832412739535e-14 -1.0 -4.0285235464969854e-15
  outer loop
    vertex 31.00000000000001 14.50000000000003 -5.639932965095795e-15
    vertex 33.00000000000001 14.499999999999973 7.000000000000003
    vertex 31.000000000000018 14.500000000000002 7.000000000000003
  endloop
endfacet
facet normal -1.0 -4.244358311688868e-15 -2.3053740587252066e-16
  outer loop
    vertex 8.000000000000007 4.000000000000022 12.999999999999979
    vertex 8.000000000000014 -4.857108850258417e-15 10.000000000000018
    vertex 8.000000000000014 -4.857108850258417e-15 12.999999999999991
  endloop
endfacet
facet normal -1.0 -4.244358311688868e-15 -2.3053740587252066e-16
  outer loop
    vertex 8.000000000000014 -4.857108850258417e-15 10.000000000000018
    vertex 8.000000000000007 4.000000000000022 12.999999999999979
    vertex 8.000000000000025 1.99999999999999 10.000000000000023
  endloop
endfacet
facet normal -1.0 -4.244358311688868e-15 -2.3053740587252066e-16
  outer loop
    vertex 8.000000000000025 1.99999999999999 10.000000000000023
    vertex 8.000000000000007 4.000000000000022 12.999999999999979
    vertex 8.000000000000025 1.99999999999999 9.500000000000009
  endloop
endfacet
facet normal -1.0 -4.244358311688868e-15 -2.3053740587252066e-16
  outer loop
    vertex 8.000000000000025 1.99999999999999 9.500000000000009
    vertex 8.000000000000007 4.000000000000022 12.999999999999979
    vertex 7.999999999999985 4.000000000000003 9.500000000000021
  endloop
endfacet
facet normal -1.0 -5.6399329650958115e-15 -2.4850659258408387e-33
  outer loop
    vertex -1.127986593019159e-14 1.9999999999999942 10.000000000000023
    vertex 0.0 7.783249420040326e-17 0.0
    vertex 0.0 7.783249420040326e-17 10.000000000000018
  endloop
endfacet
facet normal -1.0 -5.6399329650958115e-15 -2.4850659258408387e-33
  outer loop
    vertex 0.0 7.783249420040326e-17 0.0
    vertex -1.127986593019159e-14 1.9999999999999942 10.000000000000023
    vertex -1.127986593019159e-14 1.9999999999999942 -3.524958103184872e-16
  endloop
endfacet
facet normal -1.62732988987542e-30 -2.8199664825479053e-15 1.0
  outer loop
    vertex 0.0 7.783249420040326e-17 10.000000000000018
    vertex 8.000000000000025 1.99999999999999 10.000000000000023
    vertex -1.127986593019159e-14 1.9999999999999942 10.000000000000023
  endloop
endfacet
facet normal -1.62732988987542e-30 -2.8199664825479053e-15 1.0
  outer loop
    vertex 8.000000000000025 1.99999999999999 10.000000000000023
    vertex 0.0 7.783249420040326e-17 10.000000000000018
    vertex 8.000000000000014 -4.857108850258417e-15 10.000000000000018
  endloop
endfacet
facet normal 1.0 -4.0285235464969966e-16 5.7960721302429535e-33
  outer loop
    vertex 34.99999999999996 15.999999999999982 4.5824455341403335e-15
    vertex 34.99999999999995 1.999999999999981 7.000000000000008
    vertex 34.99999999999995 1.999999999999981 -3.524958103184872e-16
  endloop
endfacet
facet normal 1.0 -4.0285235464969966e-16 5.7960721302429535e-33
  outer loop
    vertex 34.99999999999995 1.999999999999981 7.000000000000008
    vertex 34.99999999999996 15.999999999999982 4.5824455341403335e-15
    vertex 34.99999999999996 15.999999999999982 7.000000000000017
  endloop
endfacet
facet normal 1.0 -0.0 -0.0
  outer loop
    vertex 40.99999999999995 1.999999999999981 -3.524958103184872e-16
    vertex 40.99999999999995 -1.472699153917606e-14 10.000000000000018
    vertex 40.99999999999995 -1.472699153917606e-14 0.0
  endloop
endfacet
facet normal 1.0 -0.0 -0.0
  outer loop
    vertex 40.99999999999995 -1.472699153917606e-14 10.000000000000018
    vertex 40.99999999999995 1.999999999999981 -3.524958103184872e-16
    vertex 40.99999999999995 1.999999999999981 10.000000000000023
  endloop
endfacet
facet normal 3.45148045255698e-33 -2.8199664825479034e-15 1.0
  outer loop
    vertex 34.99999999999996 -1.472699153917606e-14 10.000000000000018
    vertex 40.99999999999995 1.999999999999981 10.000000000000023
    vertex 34.99999999999995 1.999999999999981 10.000000000000023
  endloop
endfacet
facet normal 3.45148045255698e-33 -2.8199664825479034e-15 1.0
  outer loop
    vertex 40.99999999999995 1.999999999999981 10.000000000000023
    vertex 34.99999999999996 -1.472699153917606e-14 10.000000000000018
    vertex 40.99999999999995 -1.472699153917606e-14 10.000000000000018
  endloop
endfacet
facet normal -0.9914448613738033 1.1671729245638016e-15 0.13052619222010642
  outer loop
    vertex 39.099999999999966 -1.4021999918539084e-14 3.201057000000001
    vertex 39.04548132206246 1.999999999999981 2.7869465278359637
    vertex 39.04548132206246 -1.472699153917606e-14 2.7869465278359593
  endloop
endfacet
facet normal -0.9914448613738033 1.1671729245638016e-15 0.13052619222010642
  outer loop
    vertex 39.04548132206246 1.999999999999981 2.7869465278359637
    vertex 39.099999999999966 -1.4021999918539084e-14 3.201057000000001
    vertex 39.09999999999997 1.9999999999999836 3.201057000000004
  endloop
endfacet
facet normal -0.9238795325112943 3.5800979040411847e-16 0.3826834323650719
  outer loop
    vertex 39.04548132206246 1.999999999999981 2.7869465278359637
    vertex 38.88564064605506 -1.4021999918539084e-14 2.401056999999995
    vertex 39.04548132206246 -1.472699153917606e-14 2.7869465278359593
  endloop
endfacet
facet normal -0.9238795325112943 3.5800979040411847e-16 0.3826834323650719
  outer loop
    vertex 38.88564064605506 -1.4021999918539084e-14 2.401056999999995
    vertex 39.04548132206246 1.999999999999981 2.7869465278359637
    vertex 38.88564064605506 1.999999999999983 2.4010570000000007
  endloop
endfacet
facet normal -0.6087614290087201 2.2664364523822993e-18 0.7933533402912355
  outer loop
    vertex 38.631370849898445 -1.472699153917606e-14 2.069686150101519
    vertex 38.299999999999976 1.999999999999983 1.8154163539448975
    vertex 38.299999999999976 -1.4021999918539084e-14 1.8154163539449002
  endloop
endfacet
facet normal -0.6087614290087201 2.2664364523822993e-18 0.7933533402912355
  outer loop
    vertex 38.299999999999976 1.999999999999983 1.8154163539448975
    vertex 38.631370849898445 -1.472699153917606e-14 2.069686150101519
    vertex 38.631370849898445 1.9999999999999816 2.0696861501015222
  endloop
endfacet
facet normal -1.0 2.8199664825478923e-15 -4.6916914106919145e-30
  outer loop
    vertex 39.09999999999997 1.9999999999999956 6.7977162695366715
    vertex 39.099999999999966 -1.4021999918539084e-14 3.201057000000001
    vertex 39.099999999999966 -1.4021999918539084e-14 6.7977162695366715
  endloop
endfacet
facet normal -1.0 2.8199664825478923e-15 -4.6916914106919145e-30
  outer loop
    vertex 39.099999999999966 -1.4021999918539084e-14 3.201057000000001
    vertex 39.09999999999997 1.9999999999999956 6.7977162695366715
    vertex 39.09999999999997 1.9999999999999836 3.201057000000004
  endloop
endfacet
facet normal -0.3826834323650596 3.36365215233449e-15 -0.9238795325112994
  outer loop
    vertex 38.299999999999976 1.999999999999983 8.183356915591773
    vertex 37.91411047216398 -1.3317008297902109e-14 8.343197591599168
    vertex 37.91411047216398 1.9999999999999822 8.343197591599177
  endloop
endfacet
facet normal -0.3826834323650596 3.36365215233449e-15 -0.9238795325112994
  outer loop
    vertex 37.91411047216398 -1.3317008297902109e-14 8.343197591599168
    vertex 38.299999999999976 1.999999999999983 8.183356915591773
    vertex 38.299999999999976 -1.4021999918539084e-14 8.183356915591764
  endloop
endfacet
facet normal 0.7933533402912449 -2.1940996931652223e-15 0.608761429008708
  outer loop
    vertex 36.36862915010146 1.999999999999983 2.0696861501015236
    vertex 36.11435935394484 -1.3317008297902109e-14 2.4010569999999962
    vertex 36.36862915010146 -1.3317008297902109e-14 2.069686150101521
  endloop
endfacet
facet normal 0.7933533402912449 -2.1940996931652223e-15 0.608761429008708
  outer loop
    vertex 36.11435935394484 -1.3317008297902109e-14 2.4010569999999962
    vertex 36.36862915010146 1.999999999999983 2.0696861501015236
    vertex 36.11435935394485 1.9999999999999836 2.4010570000000007
  endloop
endfacet
facet normal -0.6087614290087372 5.034859223258935e-15 -0.7933533402912225
  outer loop
    vertex 38.631370849898445 1.9999999999999816 7.929087119435144
    vertex 38.299999999999976 -1.4021999918539084e-14 8.183356915591764
    vertex 38.299999999999976 1.999999999999983 8.183356915591773
  endloop
endfacet
facet normal -0.6087614290087372 5.034859223258935e-15 -0.7933533402912225
  outer loop
    vertex 38.299999999999976 -1.4021999918539084e-14 8.183356915591764
    vertex 38.631370849898445 1.9999999999999816 7.929087119435144
    vertex 38.631370849898445 -1.472699153917606e-14 7.929087119435128
  endloop
endfacet
facet normal -0.3826834323650696 -8.651732185786637e-16 0.9238795325112953
  outer loop
    vertex 37.91411047216398 -1.3317008297902109e-14 1.6555756779374888
    vertex 38.299999999999976 1.999999999999983 1.8154163539448975
    vertex 37.91411047216398 1.9999999999999822 1.655575677937493
  endloop
endfacet
facet normal -0.3826834323650696 -8.651732185786637e-16 0.9238795325112953
  outer loop
    vertex 38.299999999999976 1.999999999999983 1.8154163539448975
    vertex 37.91411047216398 -1.3317008297902109e-14 1.6555756779374888
    vertex 38.299999999999976 -1.4021999918539084e-14 1.8154163539449002
  endloop
endfacet
facet normal -0.9914448613738026 1.4914735743323706e-15 -0.13052619222011053
  outer loop
    vertex 39.04548132206246 1.999999999999981 7.2118267417007
    vertex 39.099999999999966 -1.4021999918539084e-14 6.7977162695366715
    vertex 39.04548132206246 -1.472699153917606e-14 7.211826741700698
  endloop
endfacet
facet normal -0.9914448613738026 1.4914735743323706e-15 -0.13052619222011053
  outer loop
    vertex 39.099999999999966 -1.4021999918539084e-14 6.7977162695366715
    vertex 39.04548132206246 1.999999999999981 7.2118267417007
    vertex 39.09999999999997 1.9999999999999956 6.7977162695366715
  endloop
endfacet
facet normal 0.13052619222004005 2.2824903505812647e-15 -0.991444861373812
  outer loop
    vertex 37.49999999999997 1.9999999999999836 8.39771626953666
    vertex 37.085889527835924 -1.4021999918539084e-14 8.343197591599168
    vertex 37.085889527835924 1.9999999999999836 8.343197591599177
  endloop
endfacet
facet normal 0.13052619222004005 2.2824903505812647e-15 -0.991444861373812
  outer loop
    vertex 37.085889527835924 -1.4021999918539084e-14 8.343197591599168
    vertex 37.49999999999997 1.9999999999999836 8.39771626953666
    vertex 37.49999999999998 -1.3317008297902109e-14 8.39771626953666
  endloop
endfacet
facet normal 1.0 -1.4099832412739505e-15 -7.840516076773556e-16
  outer loop
    vertex 35.89999999999997 1.999999999999983 3.201057000000004
    vertex 35.89999999999997 -1.3317008297902109e-14 6.7977162695366715
    vertex 35.89999999999997 -1.3317008297902109e-14 3.201057000000001
  endloop
endfacet
facet normal 1.0 -1.4099832412739505e-15 -7.840516076773556e-16
  outer loop
    vertex 35.89999999999997 -1.3317008297902109e-14 6.7977162695366715
    vertex 35.89999999999997 1.999999999999983 3.201057000000004
    vertex 35.89999999999998 1.9999999999999942 6.7977162695366715
  endloop
endfacet
facet normal 0.130526192220055 -1.642632505924884e-16 0.99144486137381
  outer loop
    vertex 37.49999999999998 -1.3317008297902109e-14 1.601056999999999
    vertex 37.085889527835924 1.9999999999999836 1.6555756779374944
    vertex 37.085889527835924 -1.4021999918539084e-14 1.6555756779374917
  endloop
endfacet
facet normal 0.130526192220055 -1.642632505924884e-16 0.99144486137381
  outer loop
    vertex 37.085889527835924 1.9999999999999836 1.6555756779374944
    vertex 37.49999999999998 -1.3317008297902109e-14 1.601056999999999
    vertex 37.49999999999997 1.9999999999999836 1.6010569999999977
  endloop
endfacet
facet normal 0.9914448613738164 -2.760822003343859e-16 0.13052619222000708
  outer loop
    vertex 35.95451867793744 1.9999999999999816 2.786946527835965
    vertex 35.89999999999997 -1.3317008297902109e-14 3.201057000000001
    vertex 35.95451867793744 -1.472699153917606e-14 2.7869465278359593
  endloop
endfacet
facet normal 0.9914448613738164 -2.760822003343859e-16 0.13052619222000708
  outer loop
    vertex 35.89999999999997 -1.3317008297902109e-14 3.201057000000001
    vertex 35.95451867793744 1.9999999999999816 2.786946527835965
    vertex 35.89999999999997 1.999999999999983 3.201057000000004
  endloop
endfacet
facet normal 0.7933533402912417 1.691946604974433e-16 -0.6087614290087122
  outer loop
    vertex 36.11435935394485 1.9999999999999836 7.597716269536659
    vertex 36.36862915010146 -1.3317008297902109e-14 7.929087119435128
    vertex 36.11435935394484 -1.3317008297902109e-14 7.597716269536667
  endloop
endfacet
facet normal 0.7933533402912417 1.691946604974433e-16 -0.6087614290087122
  outer loop
    vertex 36.36862915010146 -1.3317008297902109e-14 7.929087119435128
    vertex 36.11435935394485 1.9999999999999836 7.597716269536659
    vertex 36.36862915010146 1.999999999999983 7.929087119435144
  endloop
endfacet
facet normal 0.9914448613738168 -1.3047616333800187e-15 -0.1305261922200035
  outer loop
    vertex 35.89999999999997 -1.3317008297902109e-14 6.7977162695366715
    vertex 35.95451867793744 1.9999999999999816 7.211826741700704
    vertex 35.95451867793744 -1.472699153917606e-14 7.2118267417007
  endloop
endfacet
facet normal 0.9914448613738168 -1.3047616333800187e-15 -0.1305261922200035
  outer loop
    vertex 35.95451867793744 1.9999999999999816 7.211826741700704
    vertex 35.89999999999997 -1.3317008297902109e-14 6.7977162695366715
    vertex 35.89999999999998 1.9999999999999942 6.7977162695366715
  endloop
endfacet
facet normal 0.3826834323651072 -3.2185235072919306e-16 0.9238795325112795
  outer loop
    vertex 37.085889527835924 -1.4021999918539084e-14 1.6555756779374917
    vertex 36.699999999999974 1.9999999999999836 1.8154163539448989
    vertex 36.699999999999974 -1.3317008297902109e-14 1.8154163539449002
  endloop
endfacet
facet normal 0.3826834323651072 -3.2185235072919306e-16 0.9238795325112795
  outer loop
    vertex 36.699999999999974 1.9999999999999836 1.8154163539448989
    vertex 37.085889527835924 -1.4021999918539084e-14 1.6555756779374917
    vertex 37.085889527835924 1.9999999999999836 1.6555756779374944
  endloop
endfacet
facet normal 0.608761429008669 -2.795636922028059e-16 0.7933533402912748
  outer loop
    vertex 36.699999999999974 -1.3317008297902109e-14 1.8154163539449002
    vertex 36.36862915010146 1.999999999999983 2.0696861501015236
    vertex 36.36862915010146 -1.3317008297902109e-14 2.069686150101521
  endloop
endfacet
facet normal 0.608761429008669 -2.795636922028059e-16 0.7933533402912748
  outer loop
    vertex 36.36862915010146 1.999999999999983 2.0696861501015236
    vertex 36.699999999999974 -1.3317008297902109e-14 1.8154163539449002
    vertex 36.699999999999974 1.9999999999999836 1.8154163539448989
  endloop
endfacet
facet normal 0.9238795325112943 -2.245873443387078e-15 0.38268343236507185
  outer loop
    vertex 36.11435935394484 -1.3317008297902109e-14 2.4010569999999962
    vertex 35.95451867793744 1.9999999999999816 2.786946527835965
    vertex 35.95451867793744 -1.472699153917606e-14 2.7869465278359593
  endloop
endfacet
facet normal 0.9238795325112943 -2.245873443387078e-15 0.38268343236507185
  outer loop
    vertex 35.95451867793744 1.9999999999999816 2.786946527835965
    vertex 36.11435935394484 -1.3317008297902109e-14 2.4010569999999962
    vertex 36.11435935394485 1.9999999999999836 2.4010570000000007
  endloop
endfacet
facet normal -0.1305261922200532 1.7276063035966882e-15 -0.9914448613738103
  outer loop
    vertex 37.91411047216398 1.9999999999999822 8.343197591599177
    vertex 37.49999999999998 -1.3317008297902109e-14 8.39771626953666
    vertex 37.49999999999997 1.9999999999999836 8.39771626953666
  endloop
endfacet
facet normal -0.1305261922200532 1.7276063035966882e-15 -0.9914448613738103
  outer loop
    vertex 37.49999999999998 -1.3317008297902109e-14 8.39771626953666
    vertex 37.91411047216398 1.9999999999999822 8.343197591599177
    vertex 37.91411047216398 -1.3317008297902109e-14 8.343197591599168
  endloop
endfacet
facet normal 0.3826834323651001 3.9069730201838645e-15 -0.9238795325112825
  outer loop
    vertex 37.085889527835924 1.9999999999999836 8.343197591599177
    vertex 36.699999999999974 -1.3317008297902109e-14 8.183356915591764
    vertex 36.699999999999974 1.9999999999999836 8.183356915591773
  endloop
endfacet
facet normal 0.3826834323651001 3.9069730201838645e-15 -0.9238795325112825
  outer loop
    vertex 36.699999999999974 -1.3317008297902109e-14 8.183356915591764
    vertex 37.085889527835924 1.9999999999999836 8.343197591599177
    vertex 37.085889527835924 -1.4021999918539084e-14 8.343197591599168
  endloop
endfacet
facet normal 0.608761429008685 5.033966390077026e-15 -0.7933533402912625
  outer loop
    vertex 36.699999999999974 1.9999999999999836 8.183356915591773
    vertex 36.36862915010146 -1.3317008297902109e-14 7.929087119435128
    vertex 36.36862915010146 1.999999999999983 7.929087119435144
  endloop
endfacet
facet normal 0.608761429008685 5.033966390077026e-15 -0.7933533402912625
  outer loop
    vertex 36.36862915010146 -1.3317008297902109e-14 7.929087119435128
    vertex 36.699999999999974 1.9999999999999836 8.183356915591773
    vertex 36.699999999999974 -1.3317008297902109e-14 8.183356915591764
  endloop
endfacet
facet normal 0.9238795325112932 -1.844352108936753e-15 -0.3826834323650742
  outer loop
    vertex 35.95451867793744 1.9999999999999816 7.211826741700704
    vertex 36.11435935394484 -1.3317008297902109e-14 7.597716269536667
    vertex 35.95451867793744 -1.472699153917606e-14 7.2118267417007
  endloop
endfacet
facet normal 0.9238795325112932 -1.844352108936753e-15 -0.3826834323650742
  outer loop
    vertex 36.11435935394484 -1.3317008297902109e-14 7.597716269536667
    vertex 35.95451867793744 1.9999999999999816 7.211826741700704
    vertex 36.11435935394485 1.9999999999999836 7.597716269536659
  endloop
endfacet
facet normal -0.9238795325112932 2.1747732334649651e-16 -0.38268343236507407
  outer loop
    vertex 38.88564064605506 -1.4021999918539084e-14 7.597716269536667
    vertex 39.04548132206246 1.999999999999981 7.2118267417007
    vertex 39.04548132206246 -1.472699153917606e-14 7.211826741700698
  endloop
endfacet
facet normal -0.9238795325112932 2.1747732334649651e-16 -0.38268343236507407
  outer loop
    vertex 39.04548132206246 1.999999999999981 7.2118267417007
    vertex 38.88564064605506 -1.4021999918539084e-14 7.597716269536667
    vertex 38.88564064605506 1.999999999999983 7.597716269536653
  endloop
endfacet
facet normal -0.793353340291252 -1.6370024741653327e-16 0.6087614290086987
  outer loop
    vertex 38.88564064605506 -1.4021999918539084e-14 2.401056999999995
    vertex 38.631370849898445 1.9999999999999816 2.0696861501015222
    vertex 38.631370849898445 -1.472699153917606e-14 2.069686150101519
  endloop
endfacet
facet normal -0.793353340291252 -1.6370024741653327e-16 0.6087614290086987
  outer loop
    vertex 38.631370849898445 1.9999999999999816 2.0696861501015222
    vertex 38.88564064605506 -1.4021999918539084e-14 2.401056999999995
    vertex 38.88564064605506 1.999999999999983 2.4010570000000007
  endloop
endfacet
facet normal -0.13052619222006315 -1.0680643301625657e-15 0.9914448613738089
  outer loop
    vertex 37.49999999999998 -1.3317008297902109e-14 1.601056999999999
    vertex 37.91411047216398 1.9999999999999822 1.655575677937493
    vertex 37.49999999999997 1.9999999999999836 1.6010569999999977
  endloop
endfacet
facet normal -0.13052619222006315 -1.0680643301625657e-15 0.9914448613738089
  outer loop
    vertex 37.91411047216398 1.9999999999999822 1.655575677937493
    vertex 37.49999999999998 -1.3317008297902109e-14 1.601056999999999
    vertex 37.91411047216398 -1.3317008297902109e-14 1.6555756779374888
  endloop
endfacet
facet normal -0.7933533402912507 1.5502204324919401e-15 -0.6087614290087004
  outer loop
    vertex 38.631370849898445 1.9999999999999816 7.929087119435144
    vertex 38.88564064605506 -1.4021999918539084e-14 7.597716269536667
    vertex 38.631370849898445 -1.472699153917606e-14 7.929087119435128
  endloop
endfacet
facet normal -0.7933533402912507 1.5502204324919401e-15 -0.6087614290087004
  outer loop
    vertex 38.88564064605506 -1.4021999918539084e-14 7.597716269536667
    vertex 38.631370849898445 1.9999999999999816 7.929087119435144
    vertex 38.88564064605506 1.999999999999983 7.597716269536653
  endloop
endfacet
facet normal 3.044509319711498e-16 1.0 3.765526474649277e-17
  outer loop
    vertex -1.127986593019159e-14 1.9999999999999942 -3.524958103184872e-16
    vertex 2.700000000000063 1.99999999999999 3.614359353944899
    vertex 8.000000000000025 1.99999999999999 -3.524958103184872e-16
  endloop
endfacet
facet normal 3.044509319711498e-16 1.0 3.765526474649277e-17
  outer loop
    vertex 2.700000000000063 1.99999999999999 3.614359353944899
    vertex -1.127986593019159e-14 1.9999999999999942 -3.524958103184872e-16
    vertex 2.3686291501015067 1.9999999999999878 3.868629150101542
  endloop
endfacet
facet normal 3.044509319711498e-16 1.0 3.765526474649277e-17
  outer loop
    vertex 2.3686291501015067 1.9999999999999878 3.868629150101542
    vertex -1.127986593019159e-14 1.9999999999999942 -3.524958103184872e-16
    vertex 2.1143593539449146 1.9999999999999845 4.200000000000002
  endloop
endfacet
facet normal 3.044509319711498e-16 1.0 3.765526474649277e-17
  outer loop
    vertex 2.1143593539449146 1.9999999999999845 4.200000000000002
    vertex -1.127986593019159e-14 1.9999999999999942 -3.524958103184872e-16
    vertex 1.9545186779375707 1.9999999999999851 4.5858895278359775
  endloop
endfacet
facet normal 3.044509319711498e-16 1.0 3.765526474649277e-17
  outer loop
    vertex 1.9545186779375707 1.9999999999999851 4.5858895278359775
    vertex -1.127986593019159e-14 1.9999999999999942 -3.524958103184872e-16
    vertex -1.127986593019159e-14 1.9999999999999942 10.000000000000023
  endloop
endfacet
facet normal 3.044509319711498e-16 1.0 3.765526474649277e-17
  outer loop
    vertex 8.000000000000025 1.99999999999999 -3.524958103184872e-16
    vertex 2.700000000000063 1.99999999999999 3.614359353944899
    vertex 3.085889527836001 1.9999999999999793 3.4545186779374877
  endloop
endfacet
facet normal 3.044509319711498e-16 1.0 3.765526474649277e-17
  outer loop
    vertex 8.000000000000025 1.99999999999999 -3.524958103184872e-16
    vertex 3.085889527836001 1.9999999999999793 3.4545186779374877
    vertex 3.5000000000000444 1.9999999999999774 3.4000000000000035
  endloop
endfacet
facet normal 3.044509319711498e-16 1.0 3.765526474649277e-17
  outer loop
    vertex 1.9545186779375707 1.9999999999999851 4.5858895278359775
    vertex -1.127986593019159e-14 1.9999999999999942 10.000000000000023
    vertex 1.9000000000000867 1.9999999999999858 5.000000000000019
  endloop
endfacet
facet normal 3.044509319711498e-16 1.0 3.765526474649277e-17
  outer loop
    vertex 1.9000000000000867 1.9999999999999858 5.000000000000019
    vertex -1.127986593019159e-14 1.9999999999999942 10.000000000000023
    vertex 1.9545186779375707 1.9999999999999851 5.414110472164051
  endloop
endfacet
facet normal 3.044509319711498e-16 1.0 3.765526474649277e-17
  outer loop
    vertex 1.9545186779375707 1.9999999999999851 5.414110472164051
    vertex -1.127986593019159e-14 1.9999999999999942 10.000000000000023
    vertex 2.1143593539449146 1.9999999999999845 5.80000000000003
  endloop
endfacet
facet normal 3.044509319711498e-16 1.0 3.765526474649277e-17
  outer loop
    vertex 2.1143593539449146 1.9999999999999845 5.80000000000003
    vertex -1.127986593019159e-14 1.9999999999999942 10.000000000000023
    vertex 2.3686291501015067 1.9999999999999878 6.131370849898503
  endloop
endfacet
facet normal 3.044509319711498e-16 1.0 3.765526474649277e-17
  outer loop
    vertex 2.3686291501015067 1.9999999999999878 6.131370849898503
    vertex -1.127986593019159e-14 1.9999999999999942 10.000000000000023
    vertex 2.700000000000063 1.99999999999999 6.385640646055133
  endloop
endfacet
facet normal 3.044509319711498e-16 1.0 3.765526474649277e-17
  outer loop
    vertex 2.700000000000063 1.99999999999999 6.385640646055133
    vertex -1.127986593019159e-14 1.9999999999999942 10.000000000000023
    vertex 3.085889527836001 1.9999999999999793 6.545481322062525
  endloop
endfacet
facet normal 3.044509319711498e-16 1.0 3.765526474649277e-17
  outer loop
    vertex 3.085889527836001 1.9999999999999793 6.545481322062525
    vertex -1.127986593019159e-14 1.9999999999999942 10.000000000000023
    vertex 3.5000000000000444 1.9999999999999774 6.600000000000017
  endloop
endfacet
facet normal 3.044509319711498e-16 1.0 3.765526474649277e-17
  outer loop
    vertex 3.5000000000000444 1.9999999999999774 6.600000000000017
    vertex -1.127986593019159e-14 1.9999999999999942 10.000000000000023
    vertex 5.500000000000046 1.9999999999999858 6.600000000000017
  endloop
endfacet
facet normal 3.044509319711498e-16 1.0 3.765526474649277e-17
  outer loop
    vertex 5.500000000000046 1.9999999999999858 6.600000000000017
    vertex -1.127986593019159e-14 1.9999999999999942 10.000000000000023
    vertex 8.000000000000025 1.99999999999999 7.000000000000008
  endloop
endfacet
facet normal 3.044509319711498e-16 1.0 3.765526474649277e-17
  outer loop
    vertex 8.000000000000025 1.99999999999999 7.000000000000008
    vertex -1.127986593019159e-14 1.9999999999999942 10.000000000000023
    vertex 10.000000000000021 1.9999999999999871 7.000000000000008
  endloop
endfacet
facet normal 3.044509319711498e-16 1.0 3.765526474649277e-17
  outer loop
    vertex 10.000000000000021 1.9999999999999871 7.000000000000008
    vertex -1.127986593019159e-14 1.9999999999999942 10.000000000000023
    vertex 33.00000000000001 1.9999999999999822 7.000000000000008
  endloop
endfacet
facet normal 3.044509319711498e-16 1.0 3.765526474649277e-17
  outer loop
    vertex 33.00000000000001 1.9999999999999822 7.000000000000008
    vertex -1.127986593019159e-14 1.9999999999999942 10.000000000000023
    vertex 34.99999999999995 1.999999999999981 7.000000000000008
  endloop
endfacet
facet normal 3.044509319711498e-16 1.0 3.765526474649277e-17
  outer loop
    vertex 34.99999999999995 1.999999999999981 7.000000000000008
    vertex -1.127986593019159e-14 1.9999999999999942 10.000000000000023
    vertex 35.95451867793744 1.9999999999999816 7.211826741700704
  endloop
endfacet
facet normal 3.044509319711498e-16 1.0 3.765526474649277e-17
  outer loop
    vertex 35.95451867793744 1.9999999999999816 7.211826741700704
    vertex -1.127986593019159e-14 1.9999999999999942 10.000000000000023
    vertex 36.11435935394485 1.9999999999999836 7.597716269536659
  endloop
endfacet
facet normal 3.044509319711498e-16 1.0 3.765526474649277e-17
  outer loop
    vertex 36.11435935394485 1.9999999999999836 7.597716269536659
    vertex -1.127986593019159e-14 1.9999999999999942 10.000000000000023
    vertex 8.000000000000025 1.99999999999999 9.500000000000009
  endloop
endfacet
facet normal 3.044509319711498e-16 1.0 3.765526474649277e-17
  outer loop
    vertex 36.11435935394485 1.9999999999999836 7.597716269536659
    vertex 8.000000000000025 1.99999999999999 9.500000000000009
    vertex 36.36862915010146 1.999999999999983 7.929087119435144
  endloop
endfacet
facet normal 3.044509319711498e-16 1.0 3.765526474649277e-17
  outer loop
    vertex 36.36862915010146 1.999999999999983 7.929087119435144
    vertex 8.000000000000025 1.99999999999999 9.500000000000009
    vertex 36.699999999999974 1.9999999999999836 8.183356915591773
  endloop
endfacet
facet normal 3.044509319711498e-16 1.0 3.765526474649277e-17
  outer loop
    vertex 36.699999999999974 1.9999999999999836 8.183356915591773
    vertex 8.000000000000025 1.99999999999999 9.500000000000009
    vertex 37.085889527835924 1.9999999999999836 8.343197591599177
  endloop
endfacet
facet normal 3.044509319711498e-16 1.0 3.765526474649277e-17
  outer loop
    vertex 37.085889527835924 1.9999999999999836 8.343197591599177
    vertex 8.000000000000025 1.99999999999999 9.500000000000009
    vertex 37.49999999999997 1.9999999999999836 8.39771626953666
  endloop
endfacet
facet normal 3.044509319711498e-16 1.0 3.765526474649277e-17
  outer loop
    vertex 8.000000000000025 1.99999999999999 9.500000000000009
    vertex -1.127986593019159e-14 1.9999999999999942 10.000000000000023
    vertex 8.000000000000025 1.99999999999999 10.000000000000023
  endloop
endfacet
facet normal 3.044509319711498e-16 1.0 3.765526474649277e-17
  outer loop
    vertex 10.000000000000021 1.9999999999999871 13.000000000000007
    vertex 33.00000000000001 1.9999999999999822 9.500000000000009
    vertex 10.000000000000021 1.9999999999999871 9.500000000000009
  endloop
endfacet
facet normal 3.044509319711498e-16 1.0 3.765526474649277e-17
  outer loop
    vertex 33.00000000000001 1.9999999999999822 9.500000000000009
    vertex 10.000000000000021 1.9999999999999871 13.000000000000007
    vertex 33.00000000000001 1.9999999999999822 13.000000000000007
  endloop
endfacet
facet normal 3.044509319711498e-16 1.0 3.765526474649277e-17
  outer loop
    vertex 40.99999999999995 1.999999999999981 -3.524958103184872e-16
    vertex 39.04548132206246 1.999999999999981 2.7869465278359637
    vertex 40.99999999999995 1.999999999999981 10.000000000000023
  endloop
endfacet
facet normal 3.044509319711498e-16 1.0 3.765526474649277e-17
  outer loop
    vertex 39.04548132206246 1.999999999999981 2.7869465278359637
    vertex 40.99999999999995 1.999999999999981 -3.524958103184872e-16
    vertex 38.88564064605506 1.999999999999983 2.4010570000000007
  endloop
endfacet
facet normal 3.044509319711498e-16 1.0 3.765526474649277e-17
  outer loop
    vertex 38.88564064605506 1.999999999999983 2.4010570000000007
    vertex 40.99999999999995 1.999999999999981 -3.524958103184872e-16
    vertex 38.631370849898445 1.9999999999999816 2.0696861501015222
  endloop
endfacet
facet normal 3.044509319711498e-16 1.0 3.765526474649277e-17
  outer loop
    vertex 38.631370849898445 1.9999999999999816 2.0696861501015222
    vertex 40.99999999999995 1.999999999999981 -3.524958103184872e-16
    vertex 38.299999999999976 1.999999999999983 1.8154163539448975
  endloop
endfacet
facet normal 3.044509319711498e-16 1.0 3.765526474649277e-17
  outer loop
    vertex 38.299999999999976 1.999999999999983 1.8154163539448975
    vertex 40.99999999999995 1.999999999999981 -3.524958103184872e-16
    vertex 37.91411047216398 1.9999999999999822 1.655575677937493
  endloop
endfacet
facet normal 3.044509319711498e-16 1.0 3.765526474649277e-17
  outer loop
    vertex 37.91411047216398 1.9999999999999822 1.655575677937493
    vertex 40.99999999999995 1.999999999999981 -3.524958103184872e-16
    vertex 37.49999999999997 1.9999999999999836 1.6010569999999977
  endloop
endfacet
facet normal 3.044509319711498e-16 1.0 3.765526474649277e-17
  outer loop
    vertex 40.99999999999995 1.999999999999981 10.000000000000023
    vertex 39.04548132206246 1.999999999999981 2.7869465278359637
    vertex 39.09999999999997 1.9999999999999836 3.201057000000004
  endloop
endfacet
facet normal 3.044509319711498e-16 1.0 3.765526474649277e-17
  outer loop
    vertex 40.99999999999995 1.999999999999981 10.000000000000023
    vertex 39.09999999999997 1.9999999999999836 3.201057000000004
    vertex 39.09999999999997 1.9999999999999956 6.7977162695366715
  endloop
endfacet
facet normal 3.044509319711498e-16 1.0 3.765526474649277e-17
  outer loop
    vertex 40.99999999999995 1.999999999999981 10.000000000000023
    vertex 39.09999999999997 1.9999999999999956 6.7977162695366715
    vertex 39.04548132206246 1.999999999999981 7.2118267417007
  endloop
endfacet
facet normal 3.044509319711498e-16 1.0 3.765526474649277e-17
  outer loop
    vertex 40.99999999999995 1.999999999999981 10.000000000000023
    vertex 39.04548132206246 1.999999999999981 7.2118267417007
    vertex 38.88564064605506 1.999999999999983 7.597716269536653
  endloop
endfacet
facet normal 3.044509319711498e-16 1.0 3.765526474649277e-17
  outer loop
    vertex 40.99999999999995 1.999999999999981 10.000000000000023
    vertex 38.88564064605506 1.999999999999983 7.597716269536653
    vertex 38.631370849898445 1.9999999999999816 7.929087119435144
  endloop
endfacet
facet normal 3.044509319711498e-16 1.0 3.765526474649277e-17
  outer loop
    vertex 40.99999999999995 1.999999999999981 10.000000000000023
    vertex 38.631370849898445 1.9999999999999816 7.929087119435144
    vertex 38.299999999999976 1.999999999999983 8.183356915591773
  endloop
endfacet
facet normal 3.044509319711498e-16 1.0 3.765526474649277e-17
  outer loop
    vertex 40.99999999999995 1.999999999999981 10.000000000000023
    vertex 38.299999999999976 1.999999999999983 8.183356915591773
    vertex 37.91411047216398 1.9999999999999822 8.343197591599177
  endloop
endfacet
facet normal 3.044509319711498e-16 1.0 3.765526474649277e-17
  outer loop
    vertex 40.99999999999995 1.999999999999981 10.000000000000023
    vertex 37.91411047216398 1.9999999999999822 8.343197591599177
    vertex 37.49999999999997 1.9999999999999836 8.39771626953666
  endloop
endfacet
facet normal 3.044509319711498e-16 1.0 3.765526474649277e-17
  outer loop
    vertex 40.99999999999995 1.999999999999981 10.000000000000023
    vertex 37.49999999999997 1.9999999999999836 8.39771626953666
    vertex 34.99999999999995 1.999999999999981 9.500000000000009
  endloop
endfacet
facet normal 3.044509319711498e-16 1.0 3.765526474649277e-17
  outer loop
    vertex 34.99999999999995 1.999999999999981 9.500000000000009
    vertex 37.49999999999997 1.9999999999999836 8.39771626953666
    vertex 8.000000000000025 1.99999999999999 9.500000000000009
  endloop
endfacet
facet normal 3.044509319711498e-16 1.0 3.765526474649277e-17
  outer loop
    vertex 34.99999999999995 1.999999999999981 9.500000000000009
    vertex 8.000000000000025 1.99999999999999 9.500000000000009
    vertex 10.000000000000021 1.9999999999999871 9.500000000000009
  endloop
endfacet
facet normal 3.044509319711498e-16 1.0 3.765526474649277e-17
  outer loop
    vertex 34.99999999999995 1.999999999999981 9.500000000000009
    vertex 10.000000000000021 1.9999999999999871 9.500000000000009
    vertex 33.00000000000001 1.9999999999999822 9.500000000000009
  endloop
endfacet
facet normal 3.044509319711498e-16 1.0 3.765526474649277e-17
  outer loop
    vertex 40.99999999999995 1.999999999999981 10.000000000000023
    vertex 34.99999999999995 1.999999999999981 9.500000000000009
    vertex 34.99999999999995 1.999999999999981 10.000000000000023
  endloop
endfacet
facet normal 3.044509319711498e-16 1.0 3.765526474649277e-17
  outer loop
    vertex 34.99999999999995 1.999999999999981 -3.524958103184872e-16
    vertex 36.699999999999974 1.9999999999999836 1.8154163539448989
    vertex 40.99999999999995 1.999999999999981 -3.524958103184872e-16
  endloop
endfacet
facet normal 3.044509319711498e-16 1.0 3.765526474649277e-17
  outer loop
    vertex 36.699999999999974 1.9999999999999836 1.8154163539448989
    vertex 34.99999999999995 1.999999999999981 -3.524958103184872e-16
    vertex 36.36862915010146 1.999999999999983 2.0696861501015236
  endloop
endfacet
facet normal 3.044509319711498e-16 1.0 3.765526474649277e-17
  outer loop
    vertex 36.36862915010146 1.999999999999983 2.0696861501015236
    vertex 34.99999999999995 1.999999999999981 -3.524958103184872e-16
    vertex 36.11435935394485 1.9999999999999836 2.4010570000000007
  endloop
endfacet
facet normal 3.044509319711498e-16 1.0 3.765526474649277e-17
  outer loop
    vertex 36.11435935394485 1.9999999999999836 2.4010570000000007
    vertex 34.99999999999995 1.999999999999981 -3.524958103184872e-16
    vertex 35.95451867793744 1.9999999999999816 2.786946527835965
  endloop
endfacet
facet normal 3.044509319711498e-16 1.0 3.765526474649277e-17
  outer loop
    vertex 35.95451867793744 1.9999999999999816 2.786946527835965
    vertex 34.99999999999995 1.999999999999981 -3.524958103184872e-16
    vertex 34.99999999999995 1.999999999999981 7.000000000000008
  endloop
endfacet
facet normal 3.044509319711498e-16 1.0 3.765526474649277e-17
  outer loop
    vertex 40.99999999999995 1.999999999999981 -3.524958103184872e-16
    vertex 36.699999999999974 1.9999999999999836 1.8154163539448989
    vertex 37.085889527835924 1.9999999999999836 1.6555756779374944
  endloop
endfacet
facet normal 3.044509319711498e-16 1.0 3.765526474649277e-17
  outer loop
    vertex 40.99999999999995 1.999999999999981 -3.524958103184872e-16
    vertex 37.085889527835924 1.9999999999999836 1.6555756779374944
    vertex 37.49999999999997 1.9999999999999836 1.6010569999999977
  endloop
endfacet
facet normal 3.044509319711498e-16 1.0 3.765526474649277e-17
  outer loop
    vertex 35.95451867793744 1.9999999999999816 2.786946527835965
    vertex 34.99999999999995 1.999999999999981 7.000000000000008
    vertex 35.89999999999997 1.999999999999983 3.201057000000004
  endloop
endfacet
facet normal 3.044509319711498e-16 1.0 3.765526474649277e-17
  outer loop
    vertex 35.89999999999997 1.999999999999983 3.201057000000004
    vertex 34.99999999999995 1.999999999999981 7.000000000000008
    vertex 35.89999999999998 1.9999999999999942 6.7977162695366715
  endloop
endfacet
facet normal 3.044509319711498e-16 1.0 3.765526474649277e-17
  outer loop
    vertex 35.89999999999998 1.9999999999999942 6.7977162695366715
    vertex 34.99999999999995 1.999999999999981 7.000000000000008
    vertex 35.95451867793744 1.9999999999999816 7.211826741700704
  endloop
endfacet
facet normal 3.044509319711498e-16 1.0 3.765526474649277e-17
  outer loop
    vertex 10.000000000000021 1.9999999999999871 7.000000000000008
    vertex 33.00000000000001 1.9999999999999822 -3.524958103184872e-16
    vertex 10.000000000000021 1.9999999999999871 -3.524958103184872e-16
  endloop
endfacet
facet normal 3.044509319711498e-16 1.0 3.765526474649277e-17
  outer loop
    vertex 33.00000000000001 1.9999999999999822 -3.524958103184872e-16
    vertex 10.000000000000021 1.9999999999999871 7.000000000000008
    vertex 33.00000000000001 1.9999999999999822 7.000000000000008
  endloop
endfacet
facet normal 3.044509319711498e-16 1.0 3.765526474649277e-17
  outer loop
    vertex 8.000000000000025 1.99999999999999 -3.524958103184872e-16
    vertex 7.045481322062509 1.999999999999995 4.5858895278359775
    vertex 8.000000000000025 1.99999999999999 7.000000000000008
  endloop
endfacet
facet normal 3.044509319711498e-16 1.0 3.765526474649277e-17
  outer loop
    vertex 7.045481322062509 1.999999999999995 4.5858895278359775
    vertex 8.000000000000025 1.99999999999999 -3.524958103184872e-16
    vertex 6.885640646055154 1.999999999999993 4.200000000000002
  endloop
endfacet
facet normal 3.044509319711498e-16 1.0 3.765526474649277e-17
  outer loop
    vertex 6.885640646055154 1.999999999999993 4.200000000000002
    vertex 8.000000000000025 1.99999999999999 -3.524958103184872e-16
    vertex 6.631370849898572 1.9999999999999907 3.868629150101542
  endloop
endfacet
facet normal 3.044509319711498e-16 1.0 3.765526474649277e-17
  outer loop
    vertex 6.631370849898572 1.9999999999999907 3.868629150101542
    vertex 8.000000000000025 1.99999999999999 -3.524958103184872e-16
    vertex 6.300000000000011 1.9999999999999942 3.614359353944899
  endloop
endfacet
facet normal 3.044509319711498e-16 1.0 3.765526474649277e-17
  outer loop
    vertex 6.300000000000011 1.9999999999999942 3.614359353944899
    vertex 8.000000000000025 1.99999999999999 -3.524958103184872e-16
    vertex 5.914110472164106 1.9999999999999787 3.4545186779374877
  endloop
endfacet
facet normal 3.044509319711498e-16 1.0 3.765526474649277e-17
  outer loop
    vertex 5.914110472164106 1.9999999999999787 3.4545186779374877
    vertex 8.000000000000025 1.99999999999999 -3.524958103184872e-16
    vertex 5.500000000000046 1.9999999999999858 3.4000000000000035
  endloop
endfacet
facet normal 3.044509319711498e-16 1.0 3.765526474649277e-17
  outer loop
    vertex 5.500000000000046 1.9999999999999858 3.4000000000000035
    vertex 8.000000000000025 1.99999999999999 -3.524958103184872e-16
    vertex 3.5000000000000444 1.9999999999999774 3.4000000000000035
  endloop
endfacet
facet normal 3.044509319711498e-16 1.0 3.765526474649277e-17
  outer loop
    vertex 8.000000000000025 1.99999999999999 7.000000000000008
    vertex 7.045481322062509 1.999999999999995 4.5858895278359775
    vertex 7.100000000000077 1.9999999999999851 5.000000000000019
  endloop
endfacet
facet normal 3.044509319711498e-16 1.0 3.765526474649277e-17
  outer loop
    vertex 8.000000000000025 1.99999999999999 7.000000000000008
    vertex 7.100000000000077 1.9999999999999851 5.000000000000019
    vertex 7.045481322062509 1.999999999999995 5.414110472164048
  endloop
endfacet
facet normal 3.044509319711498e-16 1.0 3.765526474649277e-17
  outer loop
    vertex 8.000000000000025 1.99999999999999 7.000000000000008
    vertex 7.045481322062509 1.999999999999995 5.414110472164048
    vertex 6.885640646055154 1.999999999999993 5.80000000000003
  endloop
endfacet
facet normal 3.044509319711498e-16 1.0 3.765526474649277e-17
  outer loop
    vertex 8.000000000000025 1.99999999999999 7.000000000000008
    vertex 6.885640646055154 1.999999999999993 5.80000000000003
    vertex 6.631370849898572 1.9999999999999907 6.1313708498985005
  endloop
endfacet
facet normal 3.044509319711498e-16 1.0 3.765526474649277e-17
  outer loop
    vertex 8.000000000000025 1.99999999999999 7.000000000000008
    vertex 6.631370849898572 1.9999999999999907 6.1313708498985005
    vertex 6.300000000000011 1.9999999999999942 6.385640646055133
  endloop
endfacet
facet normal 3.044509319711498e-16 1.0 3.765526474649277e-17
  outer loop
    vertex 8.000000000000025 1.99999999999999 7.000000000000008
    vertex 6.300000000000011 1.9999999999999942 6.385640646055133
    vertex 5.914110472164106 1.9999999999999787 6.545481322062525
  endloop
endfacet
facet normal 3.044509319711498e-16 1.0 3.765526474649277e-17
  outer loop
    vertex 8.000000000000025 1.99999999999999 7.000000000000008
    vertex 5.914110472164106 1.9999999999999787 6.545481322062525
    vertex 5.500000000000046 1.9999999999999858 6.600000000000017
  endloop
endfacet
facet normal -1.0 -2.8199664825478706e-15 9.112077446856904e-30
  outer loop
    vertex 33.0 4.000000000000012 12.999999999999979
    vertex 33.00000000000001 1.9999999999999822 9.500000000000009
    vertex 33.00000000000001 1.9999999999999822 13.000000000000007
  endloop
endfacet
facet normal -1.0 -2.8199664825478706e-15 9.112077446856904e-30
  outer loop
    vertex 33.00000000000001 1.9999999999999822 9.500000000000009
    vertex 33.0 4.000000000000012 12.999999999999979
    vertex 33.0 3.99999999999999 9.500000000000021
  endloop
endfacet
facet normal 1.0 2.396971510165693e-14 -8.057047092994529e-16
  outer loop
    vertex 9.99999999999997 3.9999999999999956 9.500000000000021
    vertex 10.000000000000021 1.9999999999999871 13.000000000000007
    vertex 10.000000000000021 1.9999999999999871 9.500000000000009
  endloop
endfacet
facet normal 1.0 2.396971510165693e-14 -8.057047092994529e-16
  outer loop
    vertex 10.000000000000021 1.9999999999999871 13.000000000000007
    vertex 9.99999999999997 3.9999999999999956 9.500000000000021
    vertex 9.999999999999977 4.000000000000011 12.999999999999979
  endloop
endfacet
facet normal -1.9725210786369666e-31 5.63993296509577e-15 -1.0
  outer loop
    vertex 34.99999999999996 3.999999999999991 9.500000000000021
    vertex 33.00000000000001 1.9999999999999822 9.500000000000009
    vertex 33.0 3.99999999999999 9.500000000000021
  endloop
endfacet
facet normal -1.9725210786369666e-31 5.63993296509577e-15 -1.0
  outer loop
    vertex 33.00000000000001 1.9999999999999822 9.500000000000009
    vertex 34.99999999999996 3.999999999999991 9.500000000000021
    vertex 34.99999999999995 1.999999999999981 9.500000000000009
  endloop
endfacet
facet normal 1.379988171943926e-29 5.639932965095765e-15 -1.0
  outer loop
    vertex 9.99999999999997 3.9999999999999956 9.500000000000021
    vertex 8.000000000000025 1.99999999999999 9.500000000000009
    vertex 7.999999999999985 4.000000000000003 9.500000000000021
  endloop
endfacet
facet normal 1.379988171943926e-29 5.639932965095765e-15 -1.0
  outer loop
    vertex 8.000000000000025 1.99999999999999 9.500000000000009
    vertex 9.99999999999997 3.9999999999999956 9.500000000000021
    vertex 10.000000000000021 1.9999999999999871 9.500000000000009
  endloop
endfacet
facet normal 0.9238795325113411 9.933364042772266e-15 -0.3826834323649585
  outer loop
    vertex 1.9545186779375878 -2.03714236771052e-15 5.414110472164051
    vertex 2.1143593539449146 1.9999999999999845 5.80000000000003
    vertex 2.1143593539449372 -3.4471256089844687e-15 5.800000000000022
  endloop
endfacet
facet normal 0.9238795325113411 9.933364042772266e-15 -0.3826834323649585
  outer loop
    vertex 2.1143593539449146 1.9999999999999845 5.80000000000003
    vertex 1.9545186779375878 -2.03714236771052e-15 5.414110472164051
    vertex 1.9545186779375707 1.9999999999999851 5.414110472164051
  endloop
endfacet
facet normal 0.7933533402912899 5.0675173251842326e-15 -0.6087614290086494
  outer loop
    vertex 2.1143593539449372 -3.4471256089844687e-15 5.800000000000022
    vertex 2.3686291501015067 1.9999999999999878 6.131370849898503
    vertex 2.3686291501015013 -1.0497041815354212e-14 6.1313708498985005
  endloop
endfacet
facet normal 0.7933533402912899 5.0675173251842326e-15 -0.6087614290086494
  outer loop
    vertex 2.3686291501015067 1.9999999999999878 6.131370849898503
    vertex 2.1143593539449372 -3.4471256089844687e-15 5.800000000000022
    vertex 2.1143593539449146 1.9999999999999845 5.80000000000003
  endloop
endfacet
facet normal 0.6087614290086275 1.3772483182843563e-15 -0.7933533402913066
  outer loop
    vertex 2.3686291501015067 1.9999999999999878 6.131370849898503
    vertex 2.700000000000063 -7.677075332806314e-15 6.3856406460551245
    vertex 2.3686291501015013 -1.0497041815354212e-14 6.1313708498985005
  endloop
endfacet
facet normal 0.6087614290086275 1.3772483182843563e-15 -0.7933533402913066
  outer loop
    vertex 2.700000000000063 -7.677075332806314e-15 6.3856406460551245
    vertex 2.3686291501015067 1.9999999999999878 6.131370849898503
    vertex 2.700000000000063 1.99999999999999 6.385640646055133
  endloop
endfacet
facet normal 0.3826834323650861 2.9392455258391123e-15 -0.9238795325112884
  outer loop
    vertex 3.085889527836001 1.9999999999999793 6.545481322062525
    vertex 2.700000000000063 -7.677075332806314e-15 6.3856406460551245
    vertex 2.700000000000063 1.99999999999999 6.385640646055133
  endloop
endfacet
facet normal 0.3826834323650861 2.9392455258391123e-15 -0.9238795325112884
  outer loop
    vertex 2.700000000000063 -7.677075332806314e-15 6.3856406460551245
    vertex 3.085889527836001 1.9999999999999793 6.545481322062525
    vertex 3.085889527835984 -9.087058574080263e-15 6.545481322062514
  endloop
endfacet
facet normal 0.13052619222006592 1.6904433597662162e-15 -0.9914448613738086
  outer loop
    vertex 3.085889527836001 1.9999999999999793 6.545481322062525
    vertex 3.5000000000000275 7.828241148373776e-16 6.600000000000017
    vertex 3.085889527835984 -9.087058574080263e-15 6.545481322062514
  endloop
endfacet
facet normal 0.13052619222006592 1.6904433597662162e-15 -0.9914448613738086
  outer loop
    vertex 3.5000000000000275 7.828241148373776e-16 6.600000000000017
    vertex 3.085889527836001 1.9999999999999793 6.545481322062525
    vertex 3.5000000000000444 1.9999999999999774 6.600000000000017
  endloop
endfacet
facet normal 0.0 0.0 -1.0
  outer loop
    vertex 3.5000000000000444 1.9999999999999774 6.600000000000017
    vertex 5.500000000000041 -1.4021999918539084e-14 6.600000000000017
    vertex 3.5000000000000275 7.828241148373776e-16 6.600000000000017
  endloop
endfacet
facet normal 0.0 0.0 -1.0
  outer loop
    vertex 5.500000000000041 -1.4021999918539084e-14 6.600000000000017
    vertex 3.5000000000000444 1.9999999999999774 6.600000000000017
    vertex 5.500000000000046 1.9999999999999858 6.600000000000017
  endloop
endfacet
facet normal -0.13052619222006678 4.451147123421678e-15 -0.9914448613738084
  outer loop
    vertex 5.500000000000046 1.9999999999999858 6.600000000000017
    vertex 5.914110472164062 -2.03714236771052e-15 6.545481322062514
    vertex 5.500000000000041 -1.4021999918539084e-14 6.600000000000017
  endloop
endfacet
facet normal -0.13052619222006678 4.451147123421678e-15 -0.9914448613738084
  outer loop
    vertex 5.914110472164062 -2.03714236771052e-15 6.545481322062514
    vertex 5.500000000000046 1.9999999999999858 6.600000000000017
    vertex 5.914110472164106 1.9999999999999787 6.545481322062525
  endloop
endfacet
facet normal -0.3826834323650646 3.4851005263717527e-15 -0.9238795325112972
  outer loop
    vertex 5.914110472164106 1.9999999999999787 6.545481322062525
    vertex 6.300000000000067 -3.4471256089844687e-15 6.3856406460551245
    vertex 5.914110472164062 -2.03714236771052e-15 6.545481322062514
  endloop
endfacet
facet normal -0.3826834323650646 3.4851005263717527e-15 -0.9238795325112972
  outer loop
    vertex 6.300000000000067 -3.4471256089844687e-15 6.3856406460551245
    vertex 5.914110472164106 1.9999999999999787 6.545481322062525
    vertex 6.300000000000011 1.9999999999999942 6.385640646055133
  endloop
endfacet
facet normal -0.6087614290086721 -3.466577794836234e-15 -0.7933533402912725
  outer loop
    vertex 6.631370849898572 1.9999999999999907 6.1313708498985005
    vertex 6.300000000000067 -3.4471256089844687e-15 6.3856406460551245
    vertex 6.300000000000011 1.9999999999999942 6.385640646055133
  endloop
endfacet
facet normal -0.6087614290086721 -3.466577794836234e-15 -0.7933533402912725
  outer loop
    vertex 6.300000000000067 -3.4471256089844687e-15 6.3856406460551245
    vertex 6.631370849898572 1.9999999999999907 6.1313708498985005
    vertex 6.63137084989855 -1.1907025056628161e-14 6.1313708498985005
  endloop
endfacet
facet normal -0.7933533402912429 -4.302416368545353e-15 -0.6087614290087104
  outer loop
    vertex 6.63137084989855 -1.1907025056628161e-14 6.1313708498985005
    vertex 6.885640646055154 1.999999999999993 5.80000000000003
    vertex 6.885640646055204 -1.472699153917606e-14 5.800000000000022
  endloop
endfacet
facet normal -0.7933533402912429 -4.302416368545353e-15 -0.6087614290087104
  outer loop
    vertex 6.885640646055154 1.999999999999993 5.80000000000003
    vertex 6.63137084989855 -1.1907025056628161e-14 6.1313708498985005
    vertex 6.631370849898572 1.9999999999999907 6.1313708498985005
  endloop
endfacet
facet normal -0.9238795325113422 -1.8731703535175553e-14 -0.38268343236495617
  outer loop
    vertex 6.885640646055154 1.999999999999993 5.80000000000003
    vertex 7.0454813220625425 -1.1907025056628161e-14 5.414110472164048
    vertex 6.885640646055204 -1.472699153917606e-14 5.800000000000022
  endloop
endfacet
facet normal -0.9238795325113422 -1.8731703535175553e-14 -0.38268343236495617
  outer loop
    vertex 7.0454813220625425 -1.1907025056628161e-14 5.414110472164048
    vertex 6.885640646055154 1.999999999999993 5.80000000000003
    vertex 7.045481322062509 1.999999999999995 5.414110472164048
  endloop
endfacet
facet normal -0.991444861373802 8.663913579167585e-15 -0.13052619222011544
  outer loop
    vertex 7.045481322062509 1.999999999999995 5.414110472164048
    vertex 7.100000000000009 -1.0497041815354212e-14 5.000000000000011
    vertex 7.0454813220625425 -1.1907025056628161e-14 5.414110472164048
  endloop
endfacet
facet normal -0.991444861373802 8.663913579167585e-15 -0.13052619222011544
  outer loop
    vertex 7.100000000000009 -1.0497041815354212e-14 5.000000000000011
    vertex 7.045481322062509 1.999999999999995 5.414110472164048
    vertex 7.100000000000077 1.9999999999999851 5.000000000000019
  endloop
endfacet
facet normal -0.9914448613738023 7.927799536434955e-15 0.13052619222011322
  outer loop
    vertex 7.100000000000009 -1.0497041815354212e-14 5.000000000000011
    vertex 7.045481322062509 1.999999999999995 4.5858895278359775
    vertex 7.0454813220625425 -1.1907025056628161e-14 4.585889527835971
  endloop
endfacet
facet normal -0.9914448613738023 7.927799536434955e-15 0.13052619222011322
  outer loop
    vertex 7.045481322062509 1.999999999999995 4.5858895278359775
    vertex 7.100000000000009 -1.0497041815354212e-14 5.000000000000011
    vertex 7.100000000000077 1.9999999999999851 5.000000000000019
  endloop
endfacet
facet normal -0.9238795325113393 -1.953809221519631e-14 0.38268343236496327
  outer loop
    vertex 7.0454813220625425 -1.1907025056628161e-14 4.585889527835971
    vertex 6.885640646055154 1.999999999999993 4.200000000000002
    vertex 6.885640646055204 -1.472699153917606e-14 4.200000000000008
  endloop
endfacet
facet normal -0.9238795325113393 -1.953809221519631e-14 0.38268343236496327
  outer loop
    vertex 6.885640646055154 1.999999999999993 4.200000000000002
    vertex 7.0454813220625425 -1.1907025056628161e-14 4.585889527835971
    vertex 7.045481322062509 1.999999999999995 4.5858895278359775
  endloop
endfacet
facet normal -0.7933533402912404 -7.309761660931365e-15 0.6087614290087139
  outer loop
    vertex 6.885640646055154 1.999999999999993 4.200000000000002
    vertex 6.63137084989855 -1.1907025056628161e-14 3.8686291501015253
    vertex 6.885640646055204 -1.472699153917606e-14 4.200000000000008
  endloop
endfacet
facet normal -0.7933533402912404 -7.309761660931365e-15 0.6087614290087139
  outer loop
    vertex 6.63137084989855 -1.1907025056628161e-14 3.8686291501015253
    vertex 6.885640646055154 1.999999999999993 4.200000000000002
    vertex 6.631370849898572 1.9999999999999907 3.868629150101542
  endloop
endfacet
facet normal -0.6087614290086806 -8.506107304988152e-15 0.793353340291266
  outer loop
    vertex 6.300000000000067 -3.4471256089844687e-15 3.614359353944899
    vertex 6.631370849898572 1.9999999999999907 3.868629150101542
    vertex 6.300000000000011 1.9999999999999942 3.614359353944899
  endloop
endfacet
facet normal -0.6087614290086806 -8.506107304988152e-15 0.793353340291266
  outer loop
    vertex 6.631370849898572 1.9999999999999907 3.868629150101542
    vertex 6.300000000000067 -3.4471256089844687e-15 3.614359353944899
    vertex 6.63137084989855 -1.1907025056628161e-14 3.8686291501015253
  endloop
endfacet
facet normal -0.3826834323651078 -1.0789612397523758e-15 0.9238795325112793
  outer loop
    vertex 6.300000000000067 -3.4471256089844687e-15 3.614359353944899
    vertex 5.914110472164106 1.9999999999999787 3.4545186779374877
    vertex 5.914110472164062 -2.03714236771052e-15 3.4545186779374877
  endloop
endfacet
facet normal -0.3826834323651078 -1.0789612397523758e-15 0.9238795325112793
  outer loop
    vertex 5.914110472164106 1.9999999999999787 3.4545186779374877
    vertex 6.300000000000067 -3.4471256089844687e-15 3.614359353944899
    vertex 6.300000000000011 1.9999999999999942 3.614359353944899
  endloop
endfacet
facet normal -0.1305261922200336 1.6554764896620103e-15 0.9914448613738129
  outer loop
    vertex 5.914110472164062 -2.03714236771052e-15 3.4545186779374877
    vertex 5.500000000000046 1.9999999999999858 3.4000000000000035
    vertex 5.500000000000041 -1.4021999918539084e-14 3.4000000000000035
  endloop
endfacet
facet normal -0.1305261922200336 1.6554764896620103e-15 0.9914448613738129
  outer loop
    vertex 5.500000000000046 1.9999999999999858 3.4000000000000035
    vertex 5.914110472164062 -2.03714236771052e-15 3.4545186779374877
    vertex 5.914110472164106 1.9999999999999787 3.4545186779374877
  endloop
endfacet
facet normal -0.0 -0.0 1.0
  outer loop
    vertex 5.500000000000041 -1.4021999918539084e-14 3.4000000000000035
    vertex 3.5000000000000444 1.9999999999999774 3.4000000000000035
    vertex 3.5000000000000275 7.828241148373776e-16 3.4000000000000035
  endloop
endfacet
facet normal -0.0 -0.0 1.0
  outer loop
    vertex 3.5000000000000444 1.9999999999999774 3.4000000000000035
    vertex 5.500000000000041 -1.4021999918539084e-14 3.4000000000000035
    vertex 5.500000000000046 1.9999999999999858 3.4000000000000035
  endloop
endfacet
facet normal 0.13052619222003273 -1.1052272739927488e-15 0.9914448613738129
  outer loop
    vertex 3.5000000000000275 7.828241148373776e-16 3.4000000000000035
    vertex 3.085889527836001 1.9999999999999793 3.4545186779374877
    vertex 3.085889527835984 -9.087058574080263e-15 3.4545186779374877
  endloop
endfacet
facet normal 0.13052619222003273 -1.1052272739927488e-15 0.9914448613738129
  outer loop
    vertex 3.085889527836001 1.9999999999999793 3.4545186779374877
    vertex 3.5000000000000275 7.828241148373776e-16 3.4000000000000035
    vertex 3.5000000000000444 1.9999999999999774 3.4000000000000035
  endloop
endfacet
facet normal 0.3826834323651293 -1.6207772475716386e-15 0.9238795325112704
  outer loop
    vertex 3.085889527835984 -9.087058574080263e-15 3.4545186779374877
    vertex 2.700000000000063 1.99999999999999 3.614359353944899
    vertex 2.700000000000063 -7.677075332806314e-15 3.614359353944899
  endloop
endfacet
facet normal 0.3826834323651293 -1.6207772475716386e-15 0.9238795325112704
  outer loop
    vertex 2.700000000000063 1.99999999999999 3.614359353944899
    vertex 3.085889527835984 -9.087058574080263e-15 3.4545186779374877
    vertex 3.085889527836001 1.9999999999999793 3.4545186779374877
  endloop
endfacet
facet normal 0.6087614290086404 -3.6553444685227135e-15 0.7933533402912969
  outer loop
    vertex 2.700000000000063 -7.677075332806314e-15 3.614359353944899
    vertex 2.3686291501015067 1.9999999999999878 3.868629150101542
    vertex 2.3686291501015013 -1.0497041815354212e-14 3.868629150101528
  endloop
endfacet
facet normal 0.6087614290086404 -3.6553444685227135e-15 0.7933533402912969
  outer loop
    vertex 2.3686291501015067 1.9999999999999878 3.868629150101542
    vertex 2.700000000000063 -7.677075332806314e-15 3.614359353944899
    vertex 2.700000000000063 1.99999999999999 3.614359353944899
  endloop
endfacet
facet normal 0.7933533402912849 2.065494767829212e-15 0.6087614290086559
  outer loop
    vertex 2.3686291501015067 1.9999999999999878 3.868629150101542
    vertex 2.1143593539449372 -3.4471256089844687e-15 4.200000000000008
    vertex 2.3686291501015013 -1.0497041815354212e-14 3.868629150101528
  endloop
endfacet
facet normal 0.7933533402912849 2.065494767829212e-15 0.6087614290086559
  outer loop
    vertex 2.1143593539449372 -3.4471256089844687e-15 4.200000000000008
    vertex 2.3686291501015067 1.9999999999999878 3.868629150101542
    vertex 2.1143593539449146 1.9999999999999845 4.200000000000002
  endloop
endfacet
facet normal 0.9238795325113393 9.120283340510566e-15 0.3826834323649632
  outer loop
    vertex 2.1143593539449146 1.9999999999999845 4.200000000000002
    vertex 1.9545186779375878 -2.03714236771052e-15 4.585889527835971
    vertex 2.1143593539449372 -3.4471256089844687e-15 4.200000000000008
  endloop
endfacet
facet normal 0.9238795325113393 9.120283340510566e-15 0.3826834323649632
  outer loop
    vertex 1.9545186779375878 -2.03714236771052e-15 4.585889527835971
    vertex 2.1143593539449146 1.9999999999999845 4.200000000000002
    vertex 1.9545186779375707 1.9999999999999851 4.5858895278359775
  endloop
endfacet
facet normal 0.9914448613738042 -6.052019581033242e-15 0.1305261922201
  outer loop
    vertex 1.9545186779375707 1.9999999999999851 4.5858895278359775
    vertex 1.9000000000000472 -6.271591264365711e-16 5.000000000000011
    vertex 1.9545186779375878 -2.03714236771052e-15 4.585889527835971
  endloop
endfacet
facet normal 0.9914448613738042 -6.052019581033242e-15 0.1305261922201
  outer loop
    vertex 1.9000000000000472 -6.271591264365711e-16 5.000000000000011
    vertex 1.9545186779375707 1.9999999999999851 4.5858895278359775
    vertex 1.9000000000000867 1.9999999999999858 5.000000000000019
  endloop
endfacet
facet normal 0.9914448613738039 -5.314764276218922e-15 -0.13052619222010128
  outer loop
    vertex 1.9000000000000472 -6.271591264365711e-16 5.000000000000011
    vertex 1.9545186779375707 1.9999999999999851 5.414110472164051
    vertex 1.9545186779375878 -2.03714236771052e-15 5.414110472164051
  endloop
endfacet
facet normal 0.9914448613738039 -5.314764276218922e-15 -0.13052619222010128
  outer loop
    vertex 1.9545186779375707 1.9999999999999851 5.414110472164051
    vertex 1.9000000000000472 -6.271591264365711e-16 5.000000000000011
    vertex 1.9000000000000867 1.9999999999999858 5.000000000000019
  endloop
endfacet
facet normal -4.3150360431003364e-19 1.9669938372927356e-17 -1.0
  outer loop
    vertex 10.00000000000001 15.999999999999993 4.5824455341403335e-15
    vertex 10.000000000000004 14.499999999999984 -5.639932965095795e-15
    vertex 8.000000000000064 15.999999999999964 4.5824455341403335e-15
  endloop
endfacet
facet normal -4.3150360431003364e-19 1.9669938372927356e-17 -1.0
  outer loop
    vertex 10.000000000000004 14.499999999999984 -5.639932965095795e-15
    vertex 10.00000000000001 15.999999999999993 4.5824455341403335e-15
    vertex 12.000000000000114 14.500000000000002 -5.639932965095795e-15
  endloop
endfacet
facet normal -4.3150360431003364e-19 1.9669938372927356e-17 -1.0
  outer loop
    vertex 33.00000000000002 15.999999999999993 4.5824455341403335e-15
    vertex 33.00000000000001 14.500000000000002 -5.639932965095795e-15
    vertex 31.00000000000001 14.50000000000003 -5.639932965095795e-15
  endloop
endfacet
facet normal -4.3150360431003364e-19 1.9669938372927356e-17 -1.0
  outer loop
    vertex 33.00000000000001 14.500000000000002 -5.639932965095795e-15
    vertex 33.00000000000002 15.999999999999993 4.5824455341403335e-15
    vertex 33.00000000000001 1.9999999999999822 -3.524958103184872e-16
  endloop
endfacet
facet normal -4.3150360431003364e-19 1.9669938372927356e-17 -1.0
  outer loop
    vertex 34.99999999999996 15.999999999999982 4.5824455341403335e-15
    vertex 34.99999999999995 1.999999999999981 -3.524958103184872e-16
    vertex 33.00000000000002 15.999999999999993 4.5824455341403335e-15
  endloop
endfacet
facet normal -4.3150360431003364e-19 1.9669938372927356e-17 -1.0
  outer loop
    vertex 8.000000000000025 1.99999999999999 -3.524958103184872e-16
    vertex 0.0 7.783249420040326e-17 0.0
    vertex -1.127986593019159e-14 1.9999999999999942 -3.524958103184872e-16
  endloop
endfacet
facet normal -4.3150360431003364e-19 1.9669938372927356e-17 -1.0
  outer loop
    vertex 0.0 7.783249420040326e-17 0.0
    vertex 8.000000000000025 1.99999999999999 -3.524958103184872e-16
    vertex 40.99999999999995 -1.472699153917606e-14 0.0
  endloop
endfacet
facet normal -4.3150360431003364e-19 1.9669938372927356e-17 -1.0
  outer loop
    vertex 40.99999999999995 -1.472699153917606e-14 0.0
    vertex 8.000000000000025 1.99999999999999 -3.524958103184872e-16
    vertex 10.000000000000021 1.9999999999999871 -3.524958103184872e-16
  endloop
endfacet
facet normal -4.3150360431003364e-19 1.9669938372927356e-17 -1.0
  outer loop
    vertex 10.000000000000021 1.9999999999999871 -3.524958103184872e-16
    vertex 8.000000000000025 1.99999999999999 -3.524958103184872e-16
    vertex 8.000000000000064 15.999999999999964 4.5824455341403335e-15
  endloop
endfacet
facet normal -4.3150360431003364e-19 1.9669938372927356e-17 -1.0
  outer loop
    vertex 10.000000000000021 1.9999999999999871 -3.524958103184872e-16
    vertex 8.000000000000064 15.999999999999964 4.5824455341403335e-15
    vertex 10.000000000000004 14.499999999999984 -5.639932965095795e-15
  endloop
endfacet
facet normal -4.3150360431003364e-19 1.9669938372927356e-17 -1.0
  outer loop
    vertex 40.99999999999995 -1.472699153917606e-14 0.0
    vertex 10.000000000000021 1.9999999999999871 -3.524958103184872e-16
    vertex 33.00000000000001 1.9999999999999822 -3.524958103184872e-16
  endloop
endfacet
facet normal -4.3150360431003364e-19 1.9669938372927356e-17 -1.0
  outer loop
    vertex 40.99999999999995 -1.472699153917606e-14 0.0
    vertex 33.00000000000001 1.9999999999999822 -3.524958103184872e-16
    vertex 34.99999999999995 1.999999999999981 -3.524958103184872e-16
  endloop
endfacet
facet normal -4.3150360431003364e-19 1.9669938372927356e-17 -1.0
  outer loop
    vertex 34.99999999999995 1.999999999999981 -3.524958103184872e-16
    vertex 33.00000000000001 1.9999999999999822 -3.524958103184872e-16
    vertex 33.00000000000002 15.999999999999993 4.5824455341403335e-15
  endloop
endfacet
facet normal -4.3150360431003364e-19 1.9669938372927356e-17 -1.0
  outer loop
    vertex 40.99999999999995 -1.472699153917606e-14 0.0
    vertex 34.99999999999995 1.999999999999981 -3.524958103184872e-16
    vertex 40.99999999999995 1.999999999999981 -3.524958103184872e-16
  endloop
endfacet
facet normal -3.6342533899383047e-16 -1.0 -1.4135705081169235e-16
  outer loop
    vertex 35.89999999999997 -1.3317008297902109e-14 6.7977162695366715
    vertex 5.500000000000041 -1.4021999918539084e-14 3.4000000000000035
    vertex 35.89999999999997 -1.3317008297902109e-14 3.201057000000001
  endloop
endfacet
facet normal -3.6342533899383047e-16 -1.0 -1.4135705081169235e-16
  outer loop
    vertex 5.500000000000041 -1.4021999918539084e-14 3.4000000000000035
    vertex 35.89999999999997 -1.3317008297902109e-14 6.7977162695366715
    vertex 5.914110472164062 -2.03714236771052e-15 3.4545186779374877
  endloop
endfacet
facet normal -3.6342533899383047e-16 -1.0 -1.4135705081169235e-16
  outer loop
    vertex 5.914110472164062 -2.03714236771052e-15 3.4545186779374877
    vertex 35.89999999999997 -1.3317008297902109e-14 6.7977162695366715
    vertex 6.300000000000067 -3.4471256089844687e-15 3.614359353944899
  endloop
endfacet
facet normal -3.6342533899383047e-16 -1.0 -1.4135705081169235e-16
  outer loop
    vertex 6.300000000000067 -3.4471256089844687e-15 3.614359353944899
    vertex 35.89999999999997 -1.3317008297902109e-14 6.7977162695366715
    vertex 6.63137084989855 -1.1907025056628161e-14 3.8686291501015253
  endloop
endfacet
facet normal -3.6342533899383047e-16 -1.0 -1.4135705081169235e-16
  outer loop
    vertex 6.63137084989855 -1.1907025056628161e-14 3.8686291501015253
    vertex 35.89999999999997 -1.3317008297902109e-14 6.7977162695366715
    vertex 6.885640646055204 -1.472699153917606e-14 4.200000000000008
  endloop
endfacet
facet normal -3.6342533899383047e-16 -1.0 -1.4135705081169235e-16
  outer loop
    vertex 6.885640646055204 -1.472699153917606e-14 4.200000000000008
    vertex 35.89999999999997 -1.3317008297902109e-14 6.7977162695366715
    vertex 7.0454813220625425 -1.1907025056628161e-14 4.585889527835971
  endloop
endfacet
facet normal -3.6342533899383047e-16 -1.0 -1.4135705081169235e-16
  outer loop
    vertex 7.0454813220625425 -1.1907025056628161e-14 4.585889527835971
    vertex 35.89999999999997 -1.3317008297902109e-14 6.7977162695366715
    vertex 7.100000000000009 -1.0497041815354212e-14 5.000000000000011
  endloop
endfacet
facet normal -3.6342533899383047e-16 -1.0 -1.4135705081169235e-16
  outer loop
    vertex 7.100000000000009 -1.0497041815354212e-14 5.000000000000011
    vertex 35.89999999999997 -1.3317008297902109e-14 6.7977162695366715
    vertex 7.0454813220625425 -1.1907025056628161e-14 5.414110472164048
  endloop
endfacet
facet normal -3.6342533899383047e-16 -1.0 -1.4135705081169235e-16
  outer loop
    vertex 7.0454813220625425 -1.1907025056628161e-14 5.414110472164048
    vertex 35.89999999999997 -1.3317008297902109e-14 6.7977162695366715
    vertex 6.885640646055204 -1.472699153917606e-14 5.800000000000022
  endloop
endfacet
facet normal -3.6342533899383047e-16 -1.0 -1.4135705081169235e-16
  outer loop
    vertex 6.885640646055204 -1.472699153917606e-14 5.800000000000022
    vertex 35.89999999999997 -1.3317008297902109e-14 6.7977162695366715
    vertex 6.63137084989855 -1.1907025056628161e-14 6.1313708498985005
  endloop
endfacet
facet normal -3.6342533899383047e-16 -1.0 -1.4135705081169235e-16
  outer loop
    vertex 6.63137084989855 -1.1907025056628161e-14 6.1313708498985005
    vertex 35.89999999999997 -1.3317008297902109e-14 6.7977162695366715
    vertex 6.300000000000067 -3.4471256089844687e-15 6.3856406460551245
  endloop
endfacet
facet normal -3.6342533899383047e-16 -1.0 -1.4135705081169235e-16
  outer loop
    vertex 6.300000000000067 -3.4471256089844687e-15 6.3856406460551245
    vertex 35.89999999999997 -1.3317008297902109e-14 6.7977162695366715
    vertex 5.914110472164062 -2.03714236771052e-15 6.545481322062514
  endloop
endfacet
facet normal -3.6342533899383047e-16 -1.0 -1.4135705081169235e-16
  outer loop
    vertex 5.914110472164062 -2.03714236771052e-15 6.545481322062514
    vertex 35.89999999999997 -1.3317008297902109e-14 6.7977162695366715
    vertex 5.500000000000041 -1.4021999918539084e-14 6.600000000000017
  endloop
endfacet
facet normal -3.6342533899383047e-16 -1.0 -1.4135705081169235e-16
  outer loop
    vertex 5.500000000000041 -1.4021999918539084e-14 6.600000000000017
    vertex 35.89999999999997 -1.3317008297902109e-14 6.7977162695366715
    vertex 3.5000000000000275 7.828241148373776e-16 6.600000000000017
  endloop
endfacet
facet normal -3.6342533899383047e-16 -1.0 -1.4135705081169235e-16
  outer loop
    vertex 40.99999999999995 -1.472699153917606e-14 0.0
    vertex 37.49999999999998 -1.3317008297902109e-14 1.601056999999999
    vertex 0.0 7.783249420040326e-17 0.0
  endloop
endfacet
facet normal -3.6342533899383047e-16 -1.0 -1.4135705081169235e-16
  outer loop
    vertex 37.49999999999998 -1.3317008297902109e-14 1.601056999999999
    vertex 40.99999999999995 -1.472699153917606e-14 0.0
    vertex 37.91411047216398 -1.3317008297902109e-14 1.6555756779374888
  endloop
endfacet
facet normal -3.6342533899383047e-16 -1.0 -1.4135705081169235e-16
  outer loop
    vertex 37.91411047216398 -1.3317008297902109e-14 1.6555756779374888
    vertex 40.99999999999995 -1.472699153917606e-14 0.0
    vertex 38.299999999999976 -1.4021999918539084e-14 1.8154163539449002
  endloop
endfacet
facet normal -3.6342533899383047e-16 -1.0 -1.4135705081169235e-16
  outer loop
    vertex 38.299999999999976 -1.4021999918539084e-14 1.8154163539449002
    vertex 40.99999999999995 -1.472699153917606e-14 0.0
    vertex 38.631370849898445 -1.472699153917606e-14 2.069686150101519
  endloop
endfacet
facet normal -3.6342533899383047e-16 -1.0 -1.4135705081169235e-16
  outer loop
    vertex 38.631370849898445 -1.472699153917606e-14 2.069686150101519
    vertex 40.99999999999995 -1.472699153917606e-14 0.0
    vertex 38.88564064605506 -1.4021999918539084e-14 2.401056999999995
  endloop
endfacet
facet normal -3.6342533899383047e-16 -1.0 -1.4135705081169235e-16
  outer loop
    vertex 38.88564064605506 -1.4021999918539084e-14 2.401056999999995
    vertex 40.99999999999995 -1.472699153917606e-14 0.0
    vertex 39.04548132206246 -1.472699153917606e-14 2.7869465278359593
  endloop
endfacet
facet normal -3.6342533899383047e-16 -1.0 -1.4135705081169235e-16
  outer loop
    vertex 39.04548132206246 -1.472699153917606e-14 2.7869465278359593
    vertex 40.99999999999995 -1.472699153917606e-14 0.0
    vertex 40.99999999999995 -1.472699153917606e-14 10.000000000000018
  endloop
endfacet
facet normal -3.6342533899383047e-16 -1.0 -1.4135705081169235e-16
  outer loop
    vertex 39.04548132206246 -1.472699153917606e-14 2.7869465278359593
    vertex 40.99999999999995 -1.472699153917606e-14 10.000000000000018
    vertex 39.099999999999966 -1.4021999918539084e-14 3.201057000000001
  endloop
endfacet
facet normal -3.6342533899383047e-16 -1.0 -1.4135705081169235e-16
  outer loop
    vertex 39.099999999999966 -1.4021999918539084e-14 3.201057000000001
    vertex 40.99999999999995 -1.472699153917606e-14 10.000000000000018
    vertex 39.099999999999966 -1.4021999918539084e-14 6.7977162695366715
  endloop
endfacet
facet normal -3.6342533899383047e-16 -1.0 -1.4135705081169235e-16
  outer loop
    vertex 39.099999999999966 -1.4021999918539084e-14 6.7977162695366715
    vertex 40.99999999999995 -1.472699153917606e-14 10.000000000000018
    vertex 39.04548132206246 -1.472699153917606e-14 7.211826741700698
  endloop
endfacet
facet normal -3.6342533899383047e-16 -1.0 -1.4135705081169235e-16
  outer loop
    vertex 39.04548132206246 -1.472699153917606e-14 7.211826741700698
    vertex 40.99999999999995 -1.472699153917606e-14 10.000000000000018
    vertex 38.88564064605506 -1.4021999918539084e-14 7.597716269536667
  endloop
endfacet
facet normal -3.6342533899383047e-16 -1.0 -1.4135705081169235e-16
  outer loop
    vertex 38.88564064605506 -1.4021999918539084e-14 7.597716269536667
    vertex 40.99999999999995 -1.472699153917606e-14 10.000000000000018
    vertex 38.631370849898445 -1.472699153917606e-14 7.929087119435128
  endloop
endfacet
facet normal -3.6342533899383047e-16 -1.0 -1.4135705081169235e-16
  outer loop
    vertex 38.631370849898445 -1.472699153917606e-14 7.929087119435128
    vertex 40.99999999999995 -1.472699153917606e-14 10.000000000000018
    vertex 38.299999999999976 -1.4021999918539084e-14 8.183356915591764
  endloop
endfacet
facet normal -3.6342533899383047e-16 -1.0 -1.4135705081169235e-16
  outer loop
    vertex 38.299999999999976 -1.4021999918539084e-14 8.183356915591764
    vertex 40.99999999999995 -1.472699153917606e-14 10.000000000000018
    vertex 37.91411047216398 -1.3317008297902109e-14 8.343197591599168
  endloop
endfacet
facet normal -3.6342533899383047e-16 -1.0 -1.4135705081169235e-16
  outer loop
    vertex 37.91411047216398 -1.3317008297902109e-14 8.343197591599168
    vertex 40.99999999999995 -1.472699153917606e-14 10.000000000000018
    vertex 37.49999999999998 -1.3317008297902109e-14 8.39771626953666
  endloop
endfacet
facet normal -3.6342533899383047e-16 -1.0 -1.4135705081169235e-16
  outer loop
    vertex 34.99999999999996 -1.472699153917606e-14 12.999999999999991
    vertex 8.000000000000014 -4.857108850258417e-15 10.000000000000018
    vertex 34.99999999999996 -1.472699153917606e-14 10.000000000000018
  endloop
endfacet
facet normal -3.6342533899383047e-16 -1.0 -1.4135705081169235e-16
  outer loop
    vertex 8.000000000000014 -4.857108850258417e-15 10.000000000000018
    vertex 34.99999999999996 -1.472699153917606e-14 12.999999999999991
    vertex 8.000000000000014 -4.857108850258417e-15 12.999999999999991
  endloop
endfacet
facet normal -3.6342533899383047e-16 -1.0 -1.4135705081169235e-16
  outer loop
    vertex 0.0 7.783249420040326e-17 0.0
    vertex 1.9545186779375878 -2.03714236771052e-15 4.585889527835971
    vertex 0.0 7.783249420040326e-17 10.000000000000018
  endloop
endfacet
facet normal -3.6342533899383047e-16 -1.0 -1.4135705081169235e-16
  outer loop
    vertex 1.9545186779375878 -2.03714236771052e-15 4.585889527835971
    vertex 0.0 7.783249420040326e-17 0.0
    vertex 2.1143593539449372 -3.4471256089844687e-15 4.200000000000008
  endloop
endfacet
facet normal -3.6342533899383047e-16 -1.0 -1.4135705081169235e-16
  outer loop
    vertex 2.1143593539449372 -3.4471256089844687e-15 4.200000000000008
    vertex 0.0 7.783249420040326e-17 0.0
    vertex 2.3686291501015013 -1.0497041815354212e-14 3.868629150101528
  endloop
endfacet
facet normal -3.6342533899383047e-16 -1.0 -1.4135705081169235e-16
  outer loop
    vertex 2.3686291501015013 -1.0497041815354212e-14 3.868629150101528
    vertex 0.0 7.783249420040326e-17 0.0
    vertex 2.700000000000063 -7.677075332806314e-15 3.614359353944899
  endloop
endfacet
facet normal -3.6342533899383047e-16 -1.0 -1.4135705081169235e-16
  outer loop
    vertex 2.700000000000063 -7.677075332806314e-15 3.614359353944899
    vertex 0.0 7.783249420040326e-17 0.0
    vertex 3.085889527835984 -9.087058574080263e-15 3.4545186779374877
  endloop
endfacet
facet normal -3.6342533899383047e-16 -1.0 -1.4135705081169235e-16
  outer loop
    vertex 3.085889527835984 -9.087058574080263e-15 3.4545186779374877
    vertex 0.0 7.783249420040326e-17 0.0
    vertex 3.5000000000000275 7.828241148373776e-16 3.4000000000000035
  endloop
endfacet
facet normal -3.6342533899383047e-16 -1.0 -1.4135705081169235e-16
  outer loop
    vertex 3.5000000000000275 7.828241148373776e-16 3.4000000000000035
    vertex 0.0 7.783249420040326e-17 0.0
    vertex 37.49999999999998 -1.3317008297902109e-14 1.601056999999999
  endloop
endfacet
facet normal -3.6342533899383047e-16 -1.0 -1.4135705081169235e-16
  outer loop
    vertex 3.5000000000000275 7.828241148373776e-16 3.4000000000000035
    vertex 37.49999999999998 -1.3317008297902109e-14 1.601056999999999
    vertex 37.085889527835924 -1.4021999918539084e-14 1.6555756779374917
  endloop
endfacet
facet normal -3.6342533899383047e-16 -1.0 -1.4135705081169235e-16
  outer loop
    vertex 3.5000000000000275 7.828241148373776e-16 3.4000000000000035
    vertex 37.085889527835924 -1.4021999918539084e-14 1.6555756779374917
    vertex 36.699999999999974 -1.3317008297902109e-14 1.8154163539449002
  endloop
endfacet
facet normal -3.6342533899383047e-16 -1.0 -1.4135705081169235e-16
  outer loop
    vertex 3.5000000000000275 7.828241148373776e-16 3.4000000000000035
    vertex 36.699999999999974 -1.3317008297902109e-14 1.8154163539449002
    vertex 36.36862915010146 -1.3317008297902109e-14 2.069686150101521
  endloop
endfacet
facet normal -3.6342533899383047e-16 -1.0 -1.4135705081169235e-16
  outer loop
    vertex 3.5000000000000275 7.828241148373776e-16 3.4000000000000035
    vertex 36.36862915010146 -1.3317008297902109e-14 2.069686150101521
    vertex 36.11435935394484 -1.3317008297902109e-14 2.4010569999999962
  endloop
endfacet
facet normal -3.6342533899383047e-16 -1.0 -1.4135705081169235e-16
  outer loop
    vertex 3.5000000000000275 7.828241148373776e-16 3.4000000000000035
    vertex 36.11435935394484 -1.3317008297902109e-14 2.4010569999999962
    vertex 35.95451867793744 -1.472699153917606e-14 2.7869465278359593
  endloop
endfacet
facet normal -3.6342533899383047e-16 -1.0 -1.4135705081169235e-16
  outer loop
    vertex 3.5000000000000275 7.828241148373776e-16 3.4000000000000035
    vertex 35.95451867793744 -1.472699153917606e-14 2.7869465278359593
    vertex 35.89999999999997 -1.3317008297902109e-14 3.201057000000001
  endloop
endfacet
facet normal -3.6342533899383047e-16 -1.0 -1.4135705081169235e-16
  outer loop
    vertex 3.5000000000000275 7.828241148373776e-16 3.4000000000000035
    vertex 35.89999999999997 -1.3317008297902109e-14 3.201057000000001
    vertex 5.500000000000041 -1.4021999918539084e-14 3.4000000000000035
  endloop
endfacet
facet normal -3.6342533899383047e-16 -1.0 -1.4135705081169235e-16
  outer loop
    vertex 0.0 7.783249420040326e-17 10.000000000000018
    vertex 1.9545186779375878 -2.03714236771052e-15 4.585889527835971
    vertex 1.9000000000000472 -6.271591264365711e-16 5.000000000000011
  endloop
endfacet
facet normal -3.6342533899383047e-16 -1.0 -1.4135705081169235e-16
  outer loop
    vertex 0.0 7.783249420040326e-17 10.000000000000018
    vertex 1.9000000000000472 -6.271591264365711e-16 5.000000000000011
    vertex 1.9545186779375878 -2.03714236771052e-15 5.414110472164051
  endloop
endfacet
facet normal -3.6342533899383047e-16 -1.0 -1.4135705081169235e-16
  outer loop
    vertex 0.0 7.783249420040326e-17 10.000000000000018
    vertex 1.9545186779375878 -2.03714236771052e-15 5.414110472164051
    vertex 2.1143593539449372 -3.4471256089844687e-15 5.800000000000022
  endloop
endfacet
facet normal -3.6342533899383047e-16 -1.0 -1.4135705081169235e-16
  outer loop
    vertex 0.0 7.783249420040326e-17 10.000000000000018
    vertex 2.1143593539449372 -3.4471256089844687e-15 5.800000000000022
    vertex 2.3686291501015013 -1.0497041815354212e-14 6.1313708498985005
  endloop
endfacet
facet normal -3.6342533899383047e-16 -1.0 -1.4135705081169235e-16
  outer loop
    vertex 0.0 7.783249420040326e-17 10.000000000000018
    vertex 2.3686291501015013 -1.0497041815354212e-14 6.1313708498985005
    vertex 2.700000000000063 -7.677075332806314e-15 6.3856406460551245
  endloop
endfacet
facet normal -3.6342533899383047e-16 -1.0 -1.4135705081169235e-16
  outer loop
    vertex 0.0 7.783249420040326e-17 10.000000000000018
    vertex 2.700000000000063 -7.677075332806314e-15 6.3856406460551245
    vertex 3.085889527835984 -9.087058574080263e-15 6.545481322062514
  endloop
endfacet
facet normal -3.6342533899383047e-16 -1.0 -1.4135705081169235e-16
  outer loop
    vertex 0.0 7.783249420040326e-17 10.000000000000018
    vertex 3.085889527835984 -9.087058574080263e-15 6.545481322062514
    vertex 3.5000000000000275 7.828241148373776e-16 6.600000000000017
  endloop
endfacet
facet normal -3.6342533899383047e-16 -1.0 -1.4135705081169235e-16
  outer loop
    vertex 0.0 7.783249420040326e-17 10.000000000000018
    vertex 3.5000000000000275 7.828241148373776e-16 6.600000000000017
    vertex 35.89999999999997 -1.3317008297902109e-14 6.7977162695366715
  endloop
endfacet
facet normal -3.6342533899383047e-16 -1.0 -1.4135705081169235e-16
  outer loop
    vertex 0.0 7.783249420040326e-17 10.000000000000018
    vertex 35.89999999999997 -1.3317008297902109e-14 6.7977162695366715
    vertex 35.95451867793744 -1.472699153917606e-14 7.2118267417007
  endloop
endfacet
facet normal -3.6342533899383047e-16 -1.0 -1.4135705081169235e-16
  outer loop
    vertex 0.0 7.783249420040326e-17 10.000000000000018
    vertex 35.95451867793744 -1.472699153917606e-14 7.2118267417007
    vertex 36.11435935394484 -1.3317008297902109e-14 7.597716269536667
  endloop
endfacet
facet normal -3.6342533899383047e-16 -1.0 -1.4135705081169235e-16
  outer loop
    vertex 0.0 7.783249420040326e-17 10.000000000000018
    vertex 36.11435935394484 -1.3317008297902109e-14 7.597716269536667
    vertex 36.36862915010146 -1.3317008297902109e-14 7.929087119435128
  endloop
endfacet
facet normal -3.6342533899383047e-16 -1.0 -1.4135705081169235e-16
  outer loop
    vertex 0.0 7.783249420040326e-17 10.000000000000018
    vertex 36.36862915010146 -1.3317008297902109e-14 7.929087119435128
    vertex 36.699999999999974 -1.3317008297902109e-14 8.183356915591764
  endloop
endfacet
facet normal -3.6342533899383047e-16 -1.0 -1.4135705081169235e-16
  outer loop
    vertex 0.0 7.783249420040326e-17 10.000000000000018
    vertex 36.699999999999974 -1.3317008297902109e-14 8.183356915591764
    vertex 37.085889527835924 -1.4021999918539084e-14 8.343197591599168
  endloop
endfacet
facet normal -3.6342533899383047e-16 -1.0 -1.4135705081169235e-16
  outer loop
    vertex 0.0 7.783249420040326e-17 10.000000000000018
    vertex 37.085889527835924 -1.4021999918539084e-14 8.343197591599168
    vertex 37.49999999999998 -1.3317008297902109e-14 8.39771626953666
  endloop
endfacet
facet normal -3.6342533899383047e-16 -1.0 -1.4135705081169235e-16
  outer loop
    vertex 0.0 7.783249420040326e-17 10.000000000000018
    vertex 37.49999999999998 -1.3317008297902109e-14 8.39771626953666
    vertex 40.99999999999995 -1.472699153917606e-14 10.000000000000018
  endloop
endfacet
facet normal -3.6342533899383047e-16 -1.0 -1.4135705081169235e-16
  outer loop
    vertex 0.0 7.783249420040326e-17 10.000000000000018
    vertex 40.99999999999995 -1.472699153917606e-14 10.000000000000018
    vertex 34.99999999999996 -1.472699153917606e-14 10.000000000000018
  endloop
endfacet
facet normal -3.6342533899383047e-16 -1.0 -1.4135705081169235e-16
  outer loop
    vertex 0.0 7.783249420040326e-17 10.000000000000018
    vertex 34.99999999999996 -1.472699153917606e-14 10.000000000000018
    vertex 8.000000000000014 -4.857108850258417e-15 10.000000000000018
  endloop
endfacet
endsolid servo-halter-sg90-1
